<svg xmlns="http://www.w3.org/2000/svg" xmlns:xlink="http://www.w3.org/1999/xlink" preserveAspectRatio="xMidYMid" width="100" height="100" viewBox="0 0 100 100">
  <defs>
    <style>
      .cls-1 {
        fill: #1f1f1f;
      }

      .cls-1, .cls-2, .cls-3 {
        fill-rule: evenodd;
      }

      .cls-2 {
        fill: #8b8b8b;
      }

      .cls-3 {
        fill: #b90000;
      }
    </style>
  </defs>
  <path d="M98.535,97.070 L93.737,97.070 L93.737,76.936 C94.696,76.093 95.303,74.859 95.303,73.485 C95.303,70.950 93.241,68.889 90.707,68.889 L81.124,68.889 L79.644,45.212 C79.596,44.440 78.955,43.838 78.182,43.838 L71.919,43.838 C71.146,43.838 70.505,44.440 70.457,45.212 L68.977,68.889 L65.467,68.889 L63.987,45.212 C63.939,44.440 63.299,43.838 62.525,43.838 L56.263,43.838 C55.489,43.838 54.849,44.440 54.801,45.212 L53.321,68.889 L49.811,68.889 L48.331,45.212 C48.282,44.440 47.642,43.838 46.869,43.838 L40.606,43.838 C39.833,43.838 39.193,44.440 39.144,45.212 L37.664,68.889 L33.584,68.889 L32.677,28.048 C32.659,27.252 32.009,26.616 31.212,26.616 L21.819,26.616 C21.022,26.616 20.372,27.252 20.354,28.048 L19.307,75.151 L7.727,75.151 C5.193,75.151 3.131,77.213 3.131,79.747 C3.131,81.121 3.738,82.356 4.697,83.199 L4.697,97.070 L1.465,97.070 C0.656,97.070 -0.000,97.726 -0.000,98.535 C-0.000,99.344 0.656,100.000 1.465,100.000 L98.535,100.000 C99.344,100.000 100.000,99.344 100.000,98.535 C100.000,97.726 99.344,97.070 98.535,97.070 ZM19.168,81.414 L7.991,81.414 C7.182,81.414 6.526,82.070 6.526,82.879 C6.526,83.688 7.182,84.344 7.991,84.344 L19.103,84.344 L18.820,97.070 L7.627,97.070 L7.627,84.341 C7.660,84.342 7.694,84.344 7.727,84.344 C8.536,84.344 9.192,83.688 9.192,82.879 C9.192,82.070 8.536,81.414 7.727,81.414 C6.808,81.414 6.061,80.666 6.061,79.747 C6.061,78.829 6.809,78.081 7.727,78.081 L19.242,78.081 L19.168,81.414 ZM73.295,46.768 L76.805,46.768 L78.188,68.889 L71.913,68.889 L73.295,46.768 ZM57.639,46.768 L61.149,46.768 L62.532,68.889 L56.256,68.889 L57.639,46.768 ZM41.982,46.768 L45.493,46.768 L46.875,68.889 L40.600,68.889 L41.982,46.768 ZM25.051,97.070 L21.751,97.070 L23.251,29.546 L29.779,29.546 L30.654,68.889 L28.081,68.889 C25.547,68.889 23.485,70.951 23.485,73.485 C23.485,74.859 24.092,76.093 25.051,76.936 L25.051,97.070 ZM90.707,75.151 L81.576,75.151 C80.767,75.151 80.111,75.807 80.111,76.616 C80.111,77.425 80.767,78.081 81.576,78.081 L90.707,78.081 C90.741,78.081 90.774,78.079 90.808,78.078 L90.808,97.070 L27.980,97.070 L27.980,78.078 C28.014,78.079 28.047,78.081 28.081,78.081 L81.314,78.081 C82.123,78.081 82.779,77.425 82.779,76.616 C82.779,75.807 82.123,75.151 81.314,75.151 L28.081,75.151 C27.162,75.151 26.414,74.404 26.414,73.485 C26.414,72.566 27.162,71.818 28.081,71.818 L90.707,71.818 C91.626,71.818 92.373,72.566 92.373,73.485 C92.373,74.404 91.626,75.151 90.707,75.151 Z" class="cls-1"/>
  <path d="M81.313,-0.000 C76.900,-0.000 72.693,1.540 69.330,4.362 C66.916,2.550 63.989,1.566 60.960,1.566 C57.281,1.566 53.770,3.018 51.160,5.585 C49.807,5.002 48.344,4.697 46.869,4.697 C42.514,4.697 38.631,7.304 36.928,11.207 C36.340,11.042 35.738,10.959 35.126,10.959 C32.100,10.959 29.498,12.927 28.569,15.684 C28.407,15.666 28.244,15.656 28.081,15.656 C25.546,15.656 23.485,17.718 23.485,20.253 C23.485,21.062 24.141,21.718 24.950,21.718 C25.759,21.718 26.414,21.062 26.414,20.253 C26.414,19.334 27.162,18.586 28.081,18.586 C28.372,18.586 28.657,18.669 28.928,18.831 C29.367,19.094 29.911,19.108 30.363,18.870 C30.816,18.631 31.111,18.173 31.142,17.663 C31.270,15.547 33.021,13.889 35.126,13.889 C35.792,13.889 36.449,14.069 37.079,14.424 C37.474,14.647 37.950,14.674 38.368,14.497 C38.786,14.321 39.098,13.961 39.214,13.523 C40.134,10.051 43.281,7.627 46.869,7.627 C48.228,7.627 49.575,7.982 50.763,8.654 C51.370,8.998 52.137,8.866 52.593,8.337 C54.701,5.896 57.751,4.496 60.959,4.496 C63.703,4.496 66.340,5.520 68.386,7.379 C68.957,7.897 69.832,7.885 70.387,7.349 C73.345,4.499 77.225,2.930 81.313,2.930 C90.002,2.930 97.070,9.998 97.070,18.687 C97.070,27.375 90.002,34.444 81.313,34.444 C75.545,34.444 70.242,31.295 67.474,26.224 C67.105,25.548 66.275,25.274 65.575,25.596 C64.106,26.273 62.553,26.616 60.960,26.616 C57.751,26.616 54.702,25.216 52.593,22.774 C52.137,22.246 51.371,22.113 50.763,22.457 C49.575,23.129 48.228,23.485 46.869,23.485 C44.393,23.485 42.103,22.351 40.585,20.375 C40.309,20.016 39.883,19.805 39.430,19.803 C39.428,19.803 39.425,19.803 39.423,19.803 C38.973,19.803 38.548,20.009 38.270,20.363 C37.495,21.352 36.349,21.919 35.126,21.919 C34.317,21.919 33.662,22.575 33.662,23.384 C33.662,24.193 34.317,24.848 35.126,24.848 C36.679,24.848 38.155,24.330 39.359,23.389 C41.369,25.328 44.029,26.414 46.869,26.414 C48.344,26.414 49.807,26.109 51.160,25.526 C53.770,28.093 57.282,29.546 60.960,29.546 C62.538,29.546 64.084,29.280 65.570,28.756 C68.993,34.103 74.911,37.374 81.313,37.374 C91.617,37.374 100.000,28.991 100.000,18.687 C100.000,8.383 91.617,-0.000 81.313,-0.000 " class="cls-2"/>
  <path d="M84.313,95.475 C83.504,95.475 82.848,94.819 82.848,94.010 L82.848,90.879 C82.848,90.070 83.504,89.414 84.313,89.414 C85.122,89.414 85.778,90.070 85.778,90.879 L85.778,94.010 C85.778,94.819 85.122,95.475 84.313,95.475 ZM84.313,86.475 C83.504,86.475 82.848,85.819 82.848,85.010 L82.848,81.879 C82.848,81.070 83.504,80.414 84.313,80.414 C85.122,80.414 85.778,81.070 85.778,81.879 L85.778,85.010 C85.778,85.819 85.122,86.475 84.313,86.475 ZM78.050,95.475 C77.241,95.475 76.586,94.819 76.586,94.010 L76.586,90.879 C76.586,90.070 77.241,89.414 78.050,89.414 C78.859,89.414 79.515,90.070 79.515,90.879 L79.515,94.010 C79.515,94.819 78.859,95.475 78.050,95.475 ZM78.050,86.475 C77.241,86.475 76.586,85.819 76.586,85.010 L76.586,81.879 C76.586,81.070 77.241,80.414 78.050,80.414 C78.859,80.414 79.515,81.070 79.515,81.879 L79.515,85.010 C79.515,85.819 78.859,86.475 78.050,86.475 ZM71.788,95.475 C70.979,95.475 70.323,94.819 70.323,94.010 L70.323,90.879 C70.323,90.070 70.979,89.414 71.788,89.414 C72.597,89.414 73.253,90.070 73.253,90.879 L73.253,94.010 C73.253,94.819 72.597,95.475 71.788,95.475 ZM71.788,86.475 C70.979,86.475 70.323,85.819 70.323,85.010 L70.323,81.879 C70.323,81.070 70.979,80.414 71.788,80.414 C72.597,80.414 73.253,81.070 73.253,81.879 L73.253,85.010 C73.253,85.819 72.597,86.475 71.788,86.475 ZM65.525,95.475 C64.716,95.475 64.060,94.819 64.060,94.010 L64.060,90.879 C64.060,90.070 64.716,89.414 65.525,89.414 C66.334,89.414 66.990,90.070 66.990,90.879 L66.990,94.010 C66.990,94.819 66.334,95.475 65.525,95.475 ZM65.525,86.475 C64.716,86.475 64.060,85.819 64.060,85.010 L64.060,81.879 C64.060,81.070 64.716,80.414 65.525,80.414 C66.334,80.414 66.990,81.070 66.990,81.879 L66.990,85.010 C66.990,85.819 66.334,86.475 65.525,86.475 ZM59.262,95.475 C58.454,95.475 57.798,94.819 57.798,94.010 L57.798,90.879 C57.798,90.070 58.454,89.414 59.262,89.414 C60.072,89.414 60.727,90.070 60.727,90.879 L60.727,94.010 C60.727,94.819 60.071,95.475 59.262,95.475 ZM59.262,86.475 C58.454,86.475 57.798,85.819 57.798,85.010 L57.798,81.879 C57.798,81.070 58.454,80.414 59.262,80.414 C60.072,80.414 60.727,81.070 60.727,81.879 L60.727,85.010 C60.727,85.819 60.071,86.475 59.262,86.475 ZM53.000,95.475 C52.191,95.475 51.535,94.819 51.535,94.010 L51.535,90.879 C51.535,90.070 52.191,89.414 53.000,89.414 C53.809,89.414 54.465,90.070 54.465,90.879 L54.465,94.010 C54.465,94.819 53.809,95.475 53.000,95.475 ZM53.000,86.475 C52.191,86.475 51.535,85.819 51.535,85.010 L51.535,81.879 C51.535,81.070 52.191,80.414 53.000,80.414 C53.809,80.414 54.465,81.070 54.465,81.879 L54.465,85.010 C54.465,85.819 53.809,86.475 53.000,86.475 ZM46.737,95.475 C45.929,95.475 45.273,94.819 45.273,94.010 L45.273,90.879 C45.273,90.070 45.929,89.414 46.737,89.414 C47.546,89.414 48.202,90.070 48.202,90.879 L48.202,94.010 C48.202,94.819 47.546,95.475 46.737,95.475 ZM46.737,86.475 C45.929,86.475 45.273,85.819 45.273,85.010 L45.273,81.879 C45.273,81.070 45.929,80.414 46.737,80.414 C47.546,80.414 48.202,81.070 48.202,81.879 L48.202,85.010 C48.202,85.819 47.546,86.475 46.737,86.475 ZM40.475,95.475 C39.666,95.475 39.010,94.819 39.010,94.010 L39.010,90.879 C39.010,90.070 39.666,89.414 40.475,89.414 C41.284,89.414 41.940,90.070 41.940,90.879 L41.940,94.010 C41.940,94.819 41.284,95.475 40.475,95.475 ZM40.475,86.475 C39.666,86.475 39.010,85.819 39.010,85.010 L39.010,81.879 C39.010,81.070 39.666,80.414 40.475,80.414 C41.284,80.414 41.940,81.070 41.940,81.879 L41.940,85.010 C41.940,85.819 41.284,86.475 40.475,86.475 ZM34.475,95.475 C33.666,95.475 33.010,94.819 33.010,94.010 L33.010,90.879 C33.010,90.070 33.666,89.414 34.475,89.414 C35.284,89.414 35.940,90.070 35.940,90.879 L35.940,94.010 C35.940,94.819 35.284,95.475 34.475,95.475 ZM34.475,86.475 C33.666,86.475 33.010,85.819 33.010,85.010 L33.010,81.879 C33.010,81.070 33.666,80.414 34.475,80.414 C35.284,80.414 35.940,81.070 35.940,81.879 L35.940,85.010 C35.940,85.819 35.284,86.475 34.475,86.475 ZM13.475,93.475 C12.666,93.475 12.010,92.819 12.010,92.010 L12.010,88.879 C12.010,88.070 12.666,87.414 13.475,87.414 C14.284,87.414 14.940,88.070 14.940,88.879 L14.940,92.010 C14.940,92.819 14.284,93.475 13.475,93.475 Z" class="cls-3"/>
</svg>
