<svg xmlns="http://www.w3.org/2000/svg" xmlns:xlink="http://www.w3.org/1999/xlink" preserveAspectRatio="xMidYMid" width="100" height="100" viewBox="0 0 100 100">
  <defs>
    <style>
      .cls-1 {
        fill: #1f1f1f;
      }

      .cls-1, .cls-2, .cls-3 {
        fill-rule: evenodd;
      }

      .cls-2 {
        fill: #8b8b8b;
      }

      .cls-3 {
        fill: #b90000;
      }
    </style>
  </defs>
  <path d="M95.967,68.206 C95.760,68.291 95.544,68.333 95.329,68.333 C94.895,68.333 94.469,68.163 94.150,67.845 L65.818,39.511 C65.166,38.859 65.166,37.806 65.818,37.154 C66.470,36.503 67.523,36.503 68.175,37.154 L93.662,62.643 L93.662,39.999 L76.996,39.999 C76.074,39.999 75.329,39.253 75.329,38.333 L75.329,36.666 L78.662,36.666 L95.329,36.666 C96.250,36.666 96.995,37.412 96.995,38.332 L96.995,66.666 C96.995,67.340 96.590,67.948 95.967,68.206 ZM68.663,21.665 C67.741,21.665 66.996,20.919 66.996,19.999 L66.996,13.332 L53.331,13.332 C52.409,13.332 51.665,12.585 51.665,11.665 C51.665,10.745 52.409,9.999 53.331,9.999 L53.663,9.999 L53.663,6.665 L41.997,6.665 C41.075,6.665 40.330,5.919 40.330,4.999 L40.330,3.332 L33.664,3.332 L33.664,4.999 C33.664,5.919 32.919,6.665 31.997,6.665 L20.331,6.665 L20.331,11.666 C20.331,12.585 19.586,13.332 18.665,13.332 L6.998,13.332 L6.998,83.333 C6.998,84.253 6.253,85.000 5.332,85.000 C4.410,85.000 3.665,84.253 3.665,83.333 L3.665,11.665 C3.665,10.745 4.410,9.999 5.332,9.999 L16.998,9.999 L16.998,4.999 C16.998,4.079 17.743,3.332 18.665,3.332 L30.331,3.332 L30.331,1.665 C30.331,0.745 31.076,-0.001 31.998,-0.001 L41.997,-0.001 C42.919,-0.001 43.664,0.745 43.664,1.665 L43.664,3.332 L55.330,3.332 C56.252,3.332 56.997,4.079 56.997,4.999 L56.997,9.999 L68.663,9.999 C69.584,9.999 70.329,10.746 70.329,11.666 L70.329,19.999 C70.329,20.919 69.584,21.665 68.663,21.665 ZM31.998,71.666 C32.919,71.666 33.664,72.413 33.664,73.333 L33.664,96.666 L50.330,96.666 L50.330,95.000 C50.330,94.080 51.075,93.333 51.997,93.333 L68.663,93.333 C69.584,93.333 70.330,94.080 70.330,95.000 L70.330,96.667 L86.996,96.667 L86.996,68.333 C86.996,67.413 87.741,66.666 88.662,66.666 C89.584,66.666 90.329,67.413 90.329,68.333 L90.329,98.333 C90.329,99.253 89.584,100.000 88.662,100.000 L68.330,100.000 C67.408,100.000 66.663,99.253 66.663,98.333 C66.663,97.973 66.802,97.657 66.996,97.384 L66.996,96.667 L53.663,96.667 L53.663,98.333 C53.663,99.253 52.919,100.000 51.997,100.000 L31.998,100.000 C31.076,100.000 30.331,99.253 30.331,98.333 L30.331,73.333 C30.331,72.413 31.076,71.666 31.998,71.666 Z" class="cls-1"/>
  <path d="M81.996,83.333 L72.996,83.333 C72.074,83.333 71.330,82.586 71.330,81.666 L71.330,68.333 C71.330,67.413 72.074,66.666 72.996,66.666 L81.996,66.666 C82.917,66.666 83.662,67.413 83.662,68.333 L83.662,81.666 C83.662,82.586 82.917,83.333 81.996,83.333 ZM80.329,70.000 L74.663,70.000 L74.663,80.000 L80.329,80.000 L80.329,70.000 ZM66.330,90.000 C65.408,90.000 64.663,89.253 64.663,88.333 L64.663,75.999 L62.996,75.999 C62.075,75.999 61.330,75.253 61.330,74.333 C61.330,73.413 62.075,72.666 62.996,72.666 L64.663,72.666 L64.663,60.000 L55.997,60.000 L55.997,88.333 C55.997,89.253 55.252,90.000 54.330,90.000 C53.408,90.000 52.663,89.253 52.663,88.333 L52.663,58.333 C52.663,57.413 53.408,56.666 54.330,56.666 L66.330,56.666 C67.251,56.666 67.996,57.413 67.996,58.333 L67.996,88.333 C67.996,89.253 67.251,90.000 66.330,90.000 ZM61.996,28.332 C61.075,28.332 60.330,27.586 60.329,26.666 L60.329,19.999 L53.663,19.999 L53.663,29.999 L56.996,29.999 C57.917,29.999 58.662,30.746 58.662,31.666 C58.662,32.586 57.917,33.332 56.996,33.332 L53.663,33.332 L53.663,36.666 C53.663,37.586 52.918,38.333 51.996,38.333 C51.074,38.333 50.329,37.586 50.329,36.666 L50.329,33.333 L43.663,33.333 L43.663,43.333 C44.585,43.333 45.330,44.080 45.330,45.000 C45.330,45.920 44.585,46.666 43.663,46.666 C43.663,47.586 42.918,48.333 41.997,48.333 C41.075,48.333 40.330,47.586 40.330,46.666 L33.664,46.666 L33.664,56.666 C33.664,57.586 32.919,58.333 31.997,58.333 C31.997,59.253 31.252,60.000 30.331,60.000 L23.664,60.000 L23.664,66.666 C23.664,67.586 22.919,68.333 21.998,68.333 C21.076,68.333 20.331,67.586 20.331,66.666 L20.331,60.000 L13.665,60.000 L13.665,70.000 L15.331,70.000 C16.253,70.000 16.998,70.746 16.998,71.666 C16.998,72.586 16.253,73.333 15.331,73.333 L13.665,73.333 L13.665,76.666 C13.665,77.586 12.920,78.333 11.998,78.333 C11.077,78.333 10.332,77.586 10.332,76.666 L10.332,18.332 C10.332,17.412 11.077,16.666 11.998,16.666 L61.996,16.666 C62.918,16.666 63.663,17.412 63.663,18.332 L63.663,26.666 C63.663,27.586 62.918,28.332 61.996,28.332 ZM13.665,56.666 L20.331,56.666 L20.331,46.666 L13.665,46.666 L13.665,56.666 ZM13.665,43.333 L20.331,43.333 L20.331,33.332 L13.665,33.332 L13.665,43.333 ZM20.331,19.999 L13.665,19.999 L13.665,29.999 L20.331,29.999 L20.331,19.999 ZM30.331,19.999 L23.665,19.999 L23.665,29.999 L30.331,29.999 L30.331,19.999 ZM30.331,33.332 L23.665,33.332 L23.665,43.333 L30.331,43.333 L30.331,33.332 ZM30.331,46.666 L23.665,46.666 L23.665,56.666 L30.331,56.666 L30.331,46.666 ZM40.331,19.999 L33.664,19.999 L33.664,29.999 L40.331,29.999 L40.331,19.999 ZM40.331,33.332 L33.664,33.332 L33.664,43.333 L40.331,43.333 L40.331,33.332 ZM50.330,19.999 L43.664,19.999 L43.664,29.999 L50.330,29.999 L50.330,19.999 ZM38.664,66.666 L47.664,66.666 C48.585,66.666 49.330,67.413 49.330,68.333 L49.330,81.666 C49.330,82.586 48.585,83.333 47.664,83.333 L38.664,83.333 C37.742,83.333 36.997,82.586 36.997,81.666 L36.997,68.333 C36.997,67.413 37.742,66.666 38.664,66.666 ZM40.331,80.000 L45.997,80.000 L45.997,70.000 L40.331,70.000 L40.331,80.000 Z" class="cls-2"/>
  <path d="M79.531,16.433 C78.912,15.814 77.911,15.814 77.292,16.433 L1.433,93.296 C0.814,93.916 0.814,94.917 1.433,95.536 C1.742,95.845 2.147,96.000 2.553,96.000 C2.958,96.000 3.364,95.845 3.672,95.536 L79.531,18.673 C80.151,18.053 80.151,17.052 79.531,16.433 Z" class="cls-3"/>
</svg>
