<svg xmlns="http://www.w3.org/2000/svg" xmlns:xlink="http://www.w3.org/1999/xlink" preserveAspectRatio="xMidYMid" width="100" height="100" viewBox="0 0 100 100">
  <defs>
    <style>
      .cls-1 {
        fill: #8b8b8b;
      }

      .cls-1, .cls-2, .cls-3 {
        fill-rule: evenodd;
      }

      .cls-2 {
        stroke: #1f1f1f;
        stroke-width: 3px;
        fill: none;
      }

      .cls-3 {
        fill: #b90000;
      }
    </style>
  </defs>
  <path d="M81.000,87.000 C79.895,87.000 79.000,86.105 79.000,85.000 L79.000,35.000 C79.000,33.895 79.895,33.000 81.000,33.000 C82.105,33.000 83.000,33.895 83.000,35.000 L83.000,85.000 C83.000,86.105 82.105,87.000 81.000,87.000 ZM71.000,83.000 C69.895,83.000 69.000,82.105 69.000,81.000 L69.000,39.000 C69.000,37.895 69.895,37.000 71.000,37.000 C72.105,37.000 73.000,37.895 73.000,39.000 L73.000,81.000 C73.000,82.105 72.105,83.000 71.000,83.000 ZM29.000,83.000 C27.895,83.000 27.000,82.105 27.000,81.000 L27.000,39.000 C27.000,37.895 27.895,37.000 29.000,37.000 C30.105,37.000 31.000,37.895 31.000,39.000 L31.000,81.000 C31.000,82.105 30.105,83.000 29.000,83.000 ZM19.000,87.000 C17.895,87.000 17.000,86.105 17.000,85.000 L17.000,35.000 C17.000,33.895 17.895,33.000 19.000,33.000 C20.105,33.000 21.000,33.895 21.000,35.000 L21.000,85.000 C21.000,86.105 20.105,87.000 19.000,87.000 Z" class="cls-1"/>
  <path d="M10.000,93.000 L88.000,93.000 C88.552,93.000 89.000,93.448 89.000,94.000 C89.000,94.552 88.552,95.000 88.000,95.000 L10.000,95.000 C9.448,95.000 9.000,94.552 9.000,94.000 C9.000,93.448 9.448,93.000 10.000,93.000 Z" class="cls-1"/>
  <path d="M10.000,90.000 L88.000,90.000 C88.552,90.000 89.000,90.448 89.000,91.000 C89.000,91.552 88.552,92.000 88.000,92.000 L10.000,92.000 C9.448,92.000 9.000,91.552 9.000,91.000 C9.000,90.448 9.448,90.000 10.000,90.000 Z" class="cls-1"/>
  <path d="M91.407,88.834 C92.685,88.834 93.771,89.279 94.665,90.171 C95.560,91.062 96.007,92.145 96.007,93.418 L96.007,96.474 C96.007,96.856 95.847,97.206 95.528,97.525 C95.208,97.843 94.857,98.002 94.474,98.002 L5.546,98.002 C5.163,98.002 4.811,97.843 4.492,97.525 C4.172,97.206 4.013,96.856 4.013,96.474 L4.013,93.418 C4.013,92.145 4.460,91.062 5.354,90.171 C6.249,89.279 7.335,88.834 8.612,88.834 L91.407,88.834 Z" class="cls-2"/>
  <path d="M15.000,22.000 L84.000,22.000 C84.552,22.000 85.000,22.448 85.000,23.000 C85.000,23.552 84.552,24.000 84.000,24.000 L15.000,24.000 C14.448,24.000 14.000,23.552 14.000,23.000 C14.000,22.448 14.448,22.000 15.000,22.000 Z" class="cls-1"/>
  <path d="M85.000,21.000 L14.000,21.000 C13.448,21.000 13.000,20.552 13.000,20.000 C13.000,19.448 13.448,19.000 14.000,19.000 L85.000,19.000 C85.552,19.000 86.000,19.448 86.000,20.000 C86.000,20.552 85.552,21.000 85.000,21.000 ZM79.000,18.000 L22.000,18.000 C21.448,18.000 21.000,17.552 21.000,17.000 C21.000,16.448 21.448,16.000 22.000,16.000 L79.000,16.000 C79.552,16.000 80.000,16.448 80.000,17.000 C80.000,17.552 79.552,18.000 79.000,18.000 ZM70.000,15.000 L30.000,15.000 C29.448,15.000 29.000,14.552 29.000,14.000 C29.000,13.448 29.448,13.000 30.000,13.000 L70.000,13.000 C70.552,13.000 71.000,13.448 71.000,14.000 C71.000,14.552 70.552,15.000 70.000,15.000 ZM62.000,12.000 L38.000,12.000 C37.448,12.000 37.000,11.552 37.000,11.000 C37.000,10.448 37.448,10.000 38.000,10.000 L62.000,10.000 C62.552,10.000 63.000,10.448 63.000,11.000 C63.000,11.552 62.552,12.000 62.000,12.000 ZM54.000,9.000 L45.000,9.000 C44.448,9.000 44.000,8.552 44.000,8.000 C44.000,7.448 44.448,7.000 45.000,7.000 L54.000,7.000 C54.552,7.000 55.000,7.448 55.000,8.000 C55.000,8.552 54.552,9.000 54.000,9.000 ZM15.000,25.000 L84.000,25.000 C84.552,25.000 85.000,25.448 85.000,26.000 C85.000,26.552 84.552,27.000 84.000,27.000 L15.000,27.000 C14.448,27.000 14.000,26.552 14.000,26.000 C14.000,25.448 14.448,25.000 15.000,25.000 Z" class="cls-1"/>
  <path d="M96.007,20.327 C96.007,19.691 95.687,19.245 95.049,18.990 L50.585,2.181 C50.201,1.927 49.818,1.927 49.435,2.181 L4.971,18.990 C4.332,19.245 4.013,19.691 4.013,20.327 L4.013,23.383 C4.013,23.765 4.172,24.115 4.492,24.434 C4.811,24.752 5.163,24.911 5.546,24.911 L10.146,24.911 L10.146,27.204 C10.146,27.840 10.369,28.381 10.816,28.827 C11.264,29.273 11.807,29.496 12.446,29.496 L87.574,29.496 C88.213,29.496 88.756,29.273 89.203,28.827 C89.650,28.381 89.874,27.840 89.874,27.204 L89.874,24.911 L94.474,24.911 C94.857,24.911 95.208,24.752 95.528,24.434 C95.847,24.115 96.007,23.765 96.007,23.383 L96.007,20.327 Z" class="cls-2"/>
  <path d="M46.417,53.543 C46.417,54.434 46.931,55.225 47.959,55.918 C48.595,56.314 49.807,56.858 51.593,57.551 C53.380,58.243 54.689,58.812 55.521,59.258 C56.892,60.000 57.944,60.841 58.678,61.781 C59.559,62.969 60.000,64.354 60.000,65.938 C60.000,68.115 59.290,70.007 57.871,71.615 C56.451,73.223 54.567,74.225 52.217,74.621 L52.217,78.109 C52.217,78.357 52.132,78.567 51.960,78.740 C51.789,78.913 51.581,79.000 51.336,79.000 L48.400,79.000 C48.155,79.000 47.947,78.913 47.776,78.740 C47.604,78.567 47.519,78.357 47.519,78.109 L47.519,74.547 C46.099,74.300 44.765,73.867 43.517,73.248 C42.269,72.630 41.180,71.875 40.250,70.984 C40.103,70.836 40.017,70.650 39.993,70.428 C39.969,70.205 40.030,69.995 40.177,69.797 L42.379,66.754 C42.526,66.556 42.734,66.445 43.003,66.420 C43.272,66.395 43.480,66.457 43.627,66.605 C44.655,67.397 45.683,68.040 46.711,68.535 C47.886,69.030 49.011,69.277 50.088,69.277 C51.312,69.277 52.291,68.956 53.025,68.312 C53.612,67.719 53.906,67.026 53.906,66.234 C53.906,65.443 53.441,64.725 52.511,64.082 C51.875,63.686 50.688,63.142 48.950,62.449 C47.213,61.757 45.903,61.188 45.022,60.742 C43.603,59.950 42.502,59.035 41.718,57.996 C40.837,56.759 40.397,55.300 40.397,53.617 C40.397,51.688 41.045,49.993 42.342,48.533 C43.640,47.074 45.365,46.096 47.519,45.602 L47.519,41.891 C47.519,41.643 47.604,41.433 47.776,41.260 C47.947,41.087 48.155,41.000 48.400,41.000 L51.336,41.000 C51.581,41.000 51.789,41.087 51.960,41.260 C52.132,41.433 52.217,41.643 52.217,41.891 L52.217,45.379 C53.441,45.527 54.653,45.849 55.852,46.344 C57.051,46.839 58.067,47.457 58.899,48.199 C59.046,48.348 59.143,48.521 59.192,48.719 C59.241,48.917 59.217,49.115 59.119,49.312 L57.357,52.504 C57.259,52.751 57.075,52.900 56.806,52.949 C56.537,52.999 56.305,52.949 56.109,52.801 C54.151,51.415 52.266,50.723 50.455,50.723 C49.232,50.723 48.253,50.982 47.519,51.502 C46.784,52.021 46.417,52.702 46.417,53.543 Z" class="cls-3"/>
</svg>
