<?xml version="1.0" encoding="utf-8"?>
<!-- Generator: Adobe Illustrator 19.0.0, SVG Export Plug-In . SVG Version: 6.00 Build 0)  -->
<svg version="1.1" id="Layer_1" xmlns="http://www.w3.org/2000/svg" xmlns:xlink="http://www.w3.org/1999/xlink" x="0px" y="0px"
	 width="100px" height="100px" viewBox="-247 370.9 100 100" style="enable-background:new -247 370.9 100 100;"
	 xml:space="preserve">
<style type="text/css">
	.st0{fill:#8B8B8B;}
	.st1{opacity:0.75;fill:none;enable-background:new    ;}
	.st2{fill:#B90000;}
</style>
<path d="M-150.1,464.6h-8.9l0.8,3.1h0.3c0.9,0,1.6,0.7,1.6,1.6c0,0.9-0.7,1.6-1.6,1.6h-12.5c-0.9,0-1.6-0.7-1.6-1.6
	c0-0.9,0.7-1.6,1.6-1.6h0.3l0.8-3.1h-8.9c-1.7,0-3.1-1.4-3.1-3.1v-18.8c0-1.7,1.4-3.1,3.1-3.1h28.1c1.7,0,3.1,1.4,3.1,3.1v18.8
	C-147,463.2-148.4,464.6-150.1,464.6z M-161.5,467.8l-0.8-3.1h-3.8l-0.8,3.1H-161.5z M-178.3,442.8v18.8h10.8c0.1,0,0.2,0,0.3,0h5.9
	c0.1,0,0.2,0,0.3,0h10.8l0-18.8H-178.3z M-150.1,395.9h-8.9l0.8,3.1h0.3c0.9,0,1.6,0.7,1.6,1.6c0,0.9-0.7,1.6-1.6,1.6h-12.5
	c-0.9,0-1.6-0.7-1.6-1.6c0-0.9,0.7-1.6,1.6-1.6h0.3l0.8-3.1h-8.9c-1.7,0-3.1-1.4-3.1-3.1V374c0-1.7,1.4-3.1,3.1-3.1h28.1
	c1.7,0,3.1,1.4,3.1,3.1v18.8C-147,394.5-148.4,395.9-150.1,395.9z M-161.5,399l-0.8-3.1h-3.8l-0.8,3.1H-161.5z M-178.3,374v18.8
	h10.8c0.1,0,0.2,0,0.3,0h5.9c0.1,0,0.2,0,0.3,0h10.8l0-18.8H-178.3z M-215.8,464.6h-8.9l0.8,3.1h0.3c0.9,0,1.6,0.7,1.6,1.6
	c0,0.9-0.7,1.6-1.6,1.6h-12.5c-0.9,0-1.6-0.7-1.6-1.6c0-0.9,0.7-1.6,1.6-1.6h0.3l0.8-3.1h-8.9c-1.7,0-3.1-1.4-3.1-3.1v-18.8
	c0-1.7,1.4-3.1,3.1-3.1h28.1c1.7,0,3.1,1.4,3.1,3.1v18.8C-212.6,463.2-214,464.6-215.8,464.6z M-227.1,467.8l-0.8-3.1h-3.8l-0.8,3.1
	H-227.1z M-243.9,442.8v18.8h10.8c0.1,0,0.2,0,0.3,0h5.9c0.1,0,0.2,0,0.3,0h10.8l0-18.8H-243.9z M-215.8,395.9h-8.9l0.8,3.1h0.3
	c0.9,0,1.6,0.7,1.6,1.6c0,0.9-0.7,1.6-1.6,1.6h-12.5c-0.9,0-1.6-0.7-1.6-1.6c0-0.9,0.7-1.6,1.6-1.6h0.3l0.8-3.1h-8.9
	c-1.7,0-3.1-1.4-3.1-3.1V374c0-1.7,1.4-3.1,3.1-3.1h28.1c1.7,0,3.1,1.4,3.1,3.1v18.8C-212.6,394.5-214,395.9-215.8,395.9z
	 M-227.1,399l-0.8-3.1h-3.8l-0.8,3.1H-227.1z M-243.9,374v18.8h10.8c0.1,0,0.2,0,0.3,0h5.9c0.1,0,0.2,0,0.3,0h10.8l0-18.8H-243.9z"
	/>
<path class="st0" d="M-156.4,450.6h-9.4c-0.9,0-1.6-0.7-1.6-1.6c0-0.9,0.7-1.6,1.6-1.6h9.4c0.9,0,1.6,0.7,1.6,1.6
	C-154.8,449.9-155.5,450.6-156.4,450.6z M-156.4,388.1h-4.7c-0.9,0-1.6-0.7-1.6-1.6s0.7-1.6,1.6-1.6h4.7c0.9,0,1.6,0.7,1.6,1.6
	S-155.5,388.1-156.4,388.1z M-156.4,381.8h-1.6c-0.9,0-1.6-0.7-1.6-1.6c0-0.9,0.7-1.6,1.6-1.6h1.6c0.9,0,1.6,0.7,1.6,1.6
	C-154.8,381.1-155.5,381.8-156.4,381.8z M-162.6,381.8h-9.4c-0.9,0-1.6-0.7-1.6-1.6c0-0.9,0.7-1.6,1.6-1.6h9.4
	c0.9,0,1.6,0.7,1.6,1.6C-161.1,381.1-161.8,381.8-162.6,381.8z M-186.1,453.7h-21.9c-0.9,0-1.6-0.7-1.6-1.6c0-0.9,0.7-1.6,1.6-1.6
	h21.9c0.9,0,1.6,0.7,1.6,1.6C-184.5,453-185.2,453.7-186.1,453.7z M-186.1,384.9h-21.9c-0.9,0-1.6-0.7-1.6-1.6
	c0-0.9,0.7-1.6,1.6-1.6h21.9c0.9,0,1.6,0.7,1.6,1.6C-184.5,384.2-185.2,384.9-186.1,384.9z M-222,456.8h-3.1c-0.9,0-1.6-0.7-1.6-1.6
	c0-0.9,0.7-1.6,1.6-1.6h3.1c0.9,0,1.6,0.7,1.6,1.6C-220.4,456.1-221.1,456.8-222,456.8z M-222,450.6h-7.8c-0.9,0-1.6-0.7-1.6-1.6
	c0-0.9,0.7-1.6,1.6-1.6h7.8c0.9,0,1.6,0.7,1.6,1.6C-220.4,449.9-221.1,450.6-222,450.6z M-222,388.1h-1.6c-0.9,0-1.6-0.7-1.6-1.6
	s0.7-1.6,1.6-1.6h1.6c0.9,0,1.6,0.7,1.6,1.6S-221.1,388.1-222,388.1z M-222,381.8h-4.7c-0.9,0-1.6-0.7-1.6-1.6
	c0-0.9,0.7-1.6,1.6-1.6h4.7c0.9,0,1.6,0.7,1.6,1.6C-220.4,381.1-221.1,381.8-222,381.8z M-231.4,381.8h-6.3c-0.9,0-1.6-0.7-1.6-1.6
	c0-0.9,0.7-1.6,1.6-1.6h6.3c0.9,0,1.6,0.7,1.6,1.6C-229.8,381.1-230.5,381.8-231.4,381.8z M-237.6,385h9.4c0.9,0,1.6,0.7,1.6,1.6
	s-0.7,1.6-1.6,1.6h-9.4c-0.9,0-1.6-0.7-1.6-1.6S-238.5,385-237.6,385z M-237.6,447.5h3.1c0.9,0,1.6,0.7,1.6,1.6
	c0,0.9-0.7,1.6-1.6,1.6h-3.1c-0.9,0-1.6-0.7-1.6-1.6C-239.2,448.2-238.5,447.5-237.6,447.5z M-229.8,405.3c0.9,0,1.6,0.7,1.6,1.6
	V435c0,0.9-0.7,1.6-1.6,1.6c-0.9,0-1.6-0.7-1.6-1.6v-28.1C-231.4,406-230.7,405.3-229.8,405.3z M-237.6,453.7h7.8
	c0.9,0,1.6,0.7,1.6,1.6c0,0.9-0.7,1.6-1.6,1.6h-7.8c-0.9,0-1.6-0.7-1.6-1.6C-239.2,454.4-238.5,453.7-237.6,453.7z M-162.6,406.8
	V435c0,0.9-0.7,1.6-1.6,1.6c-0.9,0-1.6-0.7-1.6-1.6v-28.1c0-0.9,0.7-1.6,1.6-1.6C-163.3,405.3-162.6,406-162.6,406.8z M-172,385h6.3
	c0.9,0,1.6,0.7,1.6,1.6s-0.7,1.6-1.6,1.6h-6.3c-0.9,0-1.6-0.7-1.6-1.6S-172.9,385-172,385z M-172,447.5h1.6c0.9,0,1.6,0.7,1.6,1.6
	c0,0.9-0.7,1.6-1.6,1.6h-1.6c-0.9,0-1.6-0.7-1.6-1.6C-173.6,448.2-172.9,447.5-172,447.5z M-172,453.7h4.7c0.9,0,1.6,0.7,1.6,1.6
	c0,0.9-0.7,1.6-1.6,1.6h-4.7c-0.9,0-1.6-0.7-1.6-1.6C-173.6,454.4-172.9,453.7-172,453.7z M-162.6,453.7h6.3c0.9,0,1.6,0.7,1.6,1.6
	c0,0.9-0.7,1.6-1.6,1.6h-6.3c-0.9,0-1.6-0.7-1.6-1.6C-164.2,454.4-163.5,453.7-162.6,453.7z"/>
<path class="st1" d="z"/>
<path d="M-197,403.7c8.9,0,16.2,7.2,16.2,16.2s-7.2,16.2-16.2,16.2s-16.2-7.2-16.2-16.2S-205.9,403.7-197,403.7 M-197,401.1
	c-10.3,0-18.8,8.4-18.8,18.8s8.4,18.8,18.8,18.8s18.8-8.4,18.8-18.8S-186.7,401.1-197,401.1L-197,401.1z"/>
<g>
	<path class="st2" d="M-200.9,424.9l-0.6,0.6c-0.1,0.1-0.2,0.1-0.3,0.1c-0.1,0-0.2,0-0.3-0.1l-5.3-5.3c-0.1-0.1-0.1-0.2-0.1-0.3
		s0-0.2,0.1-0.3l5.3-5.3c0.1-0.1,0.2-0.1,0.3-0.1c0.1,0,0.2,0,0.3,0.1l0.6,0.6c0.1,0.1,0.1,0.2,0.1,0.3c0,0.1,0,0.2-0.1,0.3
		l-4.5,4.5l4.5,4.5c0.1,0.1,0.1,0.2,0.1,0.3C-200.8,424.7-200.8,424.8-200.9,424.9z M-194.2,412.8l-4.2,14.7c0,0.1-0.1,0.2-0.2,0.2
		c-0.1,0-0.2,0.1-0.3,0l-0.7-0.2c-0.1,0-0.2-0.1-0.2-0.2c0-0.1-0.1-0.2,0-0.3l4.2-14.7c0-0.1,0.1-0.2,0.2-0.2c0.1,0,0.2-0.1,0.3,0
		l0.7,0.2c0.1,0,0.2,0.1,0.2,0.2C-194.2,412.6-194.2,412.7-194.2,412.8z M-186.7,420.2l-5.3,5.3c-0.1,0.1-0.2,0.1-0.3,0.1
		c-0.1,0-0.2,0-0.3-0.1l-0.6-0.6c-0.1-0.1-0.1-0.2-0.1-0.3c0-0.1,0-0.2,0.1-0.3l4.5-4.5l-4.5-4.5c-0.1-0.1-0.1-0.2-0.1-0.3
		c0-0.1,0-0.2,0.1-0.3l0.6-0.6c0.1-0.1,0.2-0.1,0.3-0.1c0.1,0,0.2,0,0.3,0.1l5.3,5.3c0.1,0.1,0.1,0.2,0.1,0.3
		S-186.7,420.1-186.7,420.2z"/>
</g>
</svg>
