<?xml version="1.0" encoding="utf-8"?>
<!-- Generator: Adobe Illustrator 19.0.0, SVG Export Plug-In . SVG Version: 6.00 Build 0)  -->
<svg version="1.1" id="Layer_1" xmlns="http://www.w3.org/2000/svg" xmlns:xlink="http://www.w3.org/1999/xlink" x="0px" y="0px"
	 width="100px" height="100px" viewBox="165 370.89 100 100" enable-background="new 165 370.89 100 100" xml:space="preserve">
<g>
	<g>
		<g>
			<path d="M190.09,406.651v11.382c0,1.657,1.343,3,3,3h5.989v16.697h-10.766c-1.657,0-3,1.343-3,3v0.762l-3.29-2.984
				c-0.552-0.501-1.27-0.778-2.016-0.778H168v-31.078H190.09 M193.09,403.651H165v37.078h15.007l8.305,7.534v-7.534h13.766v-22.697
				h-8.989V403.651L193.09,403.651z"/>
		</g>
	</g>
	<g>
		<path d="M230.539,380.583v31.079l-12.44,0c-1.251,0-2.37,0.776-2.809,1.947l-1.287,3.433l-1.287-3.433
			c-0.439-1.171-1.558-1.947-2.809-1.947h-10.447v-31.078H230.539 M233.539,377.583h-37.079v37.078h13.447l4.096,10.927
			l4.096-10.927v0h15.44V377.583L233.539,377.583z"/>
	</g>
	<g>
		<g>
			<path d="M262,415.415v31.078h-12.007c-0.745,0-1.464,0.277-2.016,0.778l-3.29,2.984v-0.762c0-1.657-1.343-3-3-3h-10.767v-25.461
				h5.989c1.657,0,3-1.343,3-3v-2.618H262 M265,412.415h-28.09v5.618h-8.989v31.461h13.767v7.534l8.305-7.534H265V412.415
				L265,412.415z"/>
		</g>
	</g>
	<g>
		<g>
			<g>
				<g>
					<rect x="204.789" y="461.039" fill="#8B8B8B" width="3.158" height="3.158"/>
					<rect x="222.053" y="461.039" fill="#8B8B8B" width="3.158" height="3.158"/>
					<rect x="213.421" y="461.039" fill="#8B8B8B" width="3.158" height="3.158"/>
				</g>
			</g>
		</g>
	</g>
	<g>
		<path fill="#8B8B8B" d="M190.371,430.544c0,0.775-0.223,1.44-0.667,1.995c-0.444,0.556-0.98,0.833-1.606,0.833h-9.115
			c-0.626,0-1.162-0.277-1.606-0.833c-0.445-0.555-0.667-1.22-0.667-1.995c0-0.604,0.03-1.176,0.091-1.713
			c0.06-0.537,0.172-1.078,0.336-1.623c0.164-0.544,0.372-1.01,0.625-1.397s0.587-0.705,1.003-0.95
			c0.416-0.245,0.895-0.368,1.436-0.368c0.932,0.911,2.045,1.366,3.34,1.366s2.409-0.455,3.341-1.366
			c0.541,0,1.019,0.123,1.436,0.368c0.416,0.245,0.75,0.563,1.003,0.95c0.253,0.388,0.461,0.854,0.625,1.397
			c0.164,0.545,0.276,1.086,0.336,1.623C190.34,429.368,190.371,429.939,190.371,430.544z M186.438,418.179
			c0.8,0.8,1.201,1.766,1.201,2.898c0,1.13-0.4,2.096-1.201,2.897c-0.801,0.801-1.767,1.2-2.898,1.2s-2.097-0.399-2.897-1.2
			c-0.801-0.801-1.201-1.767-1.201-2.897c0-1.132,0.4-2.098,1.201-2.898c0.8-0.801,1.766-1.201,2.897-1.201
			S185.637,417.379,186.438,418.179z"/>
	</g>
	<g>
		<path fill="#8B8B8B" d="M253.291,437.308c0,0.775-0.223,1.44-0.667,1.995c-0.444,0.556-0.98,0.833-1.606,0.833h-9.114
			c-0.627,0-1.162-0.277-1.606-0.833c-0.445-0.555-0.667-1.22-0.667-1.995c0-0.604,0.03-1.176,0.091-1.713
			c0.06-0.537,0.172-1.078,0.336-1.623c0.163-0.544,0.372-1.01,0.624-1.397c0.253-0.388,0.587-0.705,1.004-0.95
			c0.416-0.245,0.895-0.368,1.436-0.368c0.932,0.911,2.045,1.366,3.34,1.366s2.409-0.455,3.341-1.366
			c0.541,0,1.02,0.123,1.436,0.368s0.751,0.563,1.003,0.95c0.253,0.388,0.461,0.854,0.625,1.397
			c0.163,0.545,0.275,1.086,0.336,1.623S253.291,436.704,253.291,437.308z M249.358,424.943c0.8,0.801,1.2,1.767,1.2,2.898
			c0,1.131-0.4,2.097-1.2,2.897c-0.801,0.801-1.767,1.2-2.898,1.2c-1.131,0-2.097-0.399-2.897-1.2s-1.2-1.767-1.2-2.897
			c0-1.132,0.399-2.098,1.2-2.898s1.767-1.2,2.897-1.2C247.592,423.743,248.558,424.142,249.358,424.943z"/>
	</g>
	<g>
		<path fill="#B90000" d="M223.41,402.466c0,0.955-0.273,1.774-0.822,2.458c-0.547,0.683-1.207,1.025-1.977,1.025h-11.222
			c-0.771,0-1.43-0.342-1.978-1.025c-0.547-0.684-0.821-1.502-0.821-2.458c0-0.744,0.037-1.447,0.112-2.109
			c0.074-0.661,0.212-1.327,0.414-1.997c0.202-0.67,0.458-1.244,0.769-1.722c0.311-0.477,0.723-0.867,1.235-1.169
			c0.513-0.302,1.102-0.453,1.768-0.453c1.147,1.121,2.519,1.682,4.113,1.682c1.594,0,2.965-0.561,4.113-1.682
			c0.666,0,1.254,0.151,1.768,0.453c0.512,0.302,0.924,0.692,1.234,1.169c0.311,0.478,0.566,1.051,0.77,1.722
			c0.201,0.67,0.338,1.336,0.414,1.997C223.373,401.018,223.41,401.721,223.41,402.466z M218.568,387.243
			c0.984,0.985,1.477,2.175,1.477,3.567c0,1.393-0.492,2.582-1.477,3.567c-0.986,0.986-2.176,1.479-3.568,1.479
			c-1.393,0-2.582-0.493-3.567-1.479c-0.986-0.985-1.479-2.174-1.479-3.567c0-1.393,0.493-2.582,1.479-3.567
			c0.985-0.986,2.174-1.479,3.567-1.479C216.393,385.764,217.582,386.257,218.568,387.243z"/>
	</g>
</g>
</svg>
