<?xml version="1.0" encoding="utf-8"?>
<!-- Generator: Adobe Illustrator 19.0.0, SVG Export Plug-In . SVG Version: 6.00 Build 0)  -->
<svg version="1.1" id="Layer_1" xmlns="http://www.w3.org/2000/svg" xmlns:xlink="http://www.w3.org/1999/xlink" x="0px" y="0px"
	 width="100px" height="100px" viewBox="-247 370.89 100 100" enable-background="new -247 370.89 100 100" xml:space="preserve">
<path fill="#8B8B8B" d="M-196.974,435.231c-7.895-0.01-14.323-6.438-14.332-14.332c0-7.904,6.429-14.333,14.332-14.333
	c7.902,0,14.332,6.429,14.332,14.332S-189.071,435.231-196.974,435.231z M-196.974,408.567c-6.8,0-12.332,5.532-12.332,12.332
	c0.008,6.792,5.541,12.325,12.333,12.333c6.799,0,12.331-5.532,12.331-12.333C-184.642,414.099-190.174,408.567-196.974,408.567z"/>
<g>
	<g>
		<path fill="#B90000" d="M-189.533,421.8c-0.459-0.599-1.116-1.025-1.97-1.272c0.606-0.274,1.087-0.687,1.44-1.234
			c0.353-0.547,0.53-1.151,0.53-1.808c0-0.605-0.143-1.152-0.43-1.64c-0.288-0.488-0.646-0.878-1.076-1.171
			c-0.43-0.294-0.917-0.487-1.464-0.579c-0.389-0.066-0.928-0.106-1.604-0.126v-2.706h-2.124v2.693h-1.382v-2.693h-2.098v2.693
			h-3.449v2.334h1.39c0.535,0,0.968,0.434,0.968,0.968v7.416c0,0.535-0.434,0.968-0.968,0.968h-1.39v2.334h3.449v2.54h2.098v-2.54
			h1.382v2.54h2.124v-2.562c0.82-0.017,1.408-0.041,1.704-0.073c0.752-0.083,1.386-0.303,1.899-0.664
			c0.514-0.36,0.917-0.843,1.216-1.444c0.296-0.603,0.444-1.223,0.444-1.86C-188.843,423.104-189.074,422.399-189.533,421.8z
			 M-196.132,416.291c1.332,0,1.72,0.015,2,0.047c0.472,0.056,0.828,0.221,1.069,0.493c0.238,0.269,0.358,0.623,0.358,1.055
			c0,0.453-0.138,0.82-0.415,1.096c-0.277,0.279-0.659,0.446-1.143,0.502c-0.268,0.032-0.534,0.049-1.636,0.049h-1.646v-3.243
			H-196.132z M-192.587,424.97c-0.265,0.297-0.606,0.484-1.028,0.561c-0.274,0.056-0.501,0.086-1.523,0.086h-2.411v-3.75h2.077
			c1.288,0,1.707,0.068,2.092,0.2c0.385,0.135,0.681,0.349,0.884,0.643c0.206,0.293,0.309,0.65,0.309,1.072
			C-192.189,424.276-192.324,424.674-192.587,424.97z"/>
	</g>
</g>
<g>
	
		<line fill="none" stroke="#000000" stroke-width="2" stroke-linecap="round" stroke-linejoin="round" stroke-miterlimit="10" x1="-194.007" y1="379.444" x2="-160.341" y2="395.542"/>
	
		<line fill="none" stroke="#000000" stroke-width="2" stroke-linecap="round" stroke-linejoin="round" stroke-miterlimit="10" x1="-155.437" y1="403.99" x2="-153.644" y2="419.232"/>
	
		<line fill="none" stroke="#000000" stroke-width="2" stroke-linecap="round" stroke-linejoin="round" stroke-miterlimit="10" x1="-154.54" y1="429.232" x2="-159.503" y2="450.967"/>
	
		<line fill="none" stroke="#000000" stroke-width="2" stroke-linecap="round" stroke-linejoin="round" stroke-miterlimit="10" x1="-165.311" y1="456.648" x2="-191.974" y2="463.265"/>
	
		<line fill="none" stroke="#000000" stroke-width="2" stroke-linecap="round" stroke-linejoin="round" stroke-miterlimit="10" x1="-201.974" y1="464.229" x2="-222.297" y2="462.657"/>
	
		<line fill="none" stroke="#000000" stroke-width="2" stroke-linecap="round" stroke-linejoin="round" stroke-miterlimit="10" x1="-229.61" y1="456.648" x2="-238.128" y2="437.066"/>
	
		<line fill="none" stroke="#000000" stroke-width="2" stroke-linecap="round" stroke-linejoin="round" stroke-miterlimit="10" x1="-240.304" y1="427.565" x2="-235.492" y2="395.542"/>
	
		<line fill="none" stroke="#000000" stroke-width="2" stroke-linecap="round" stroke-linejoin="round" stroke-miterlimit="10" x1="-229.982" y1="387.493" x2="-203.641" y2="378.197"/>
	
		<line fill="none" stroke="#8B8B8B" stroke-width="1.5" stroke-linecap="round" stroke-linejoin="round" stroke-miterlimit="10" x1="-229.915" y1="394.234" x2="-206.918" y2="412.029"/>
	
		<line fill="none" stroke="#8B8B8B" stroke-width="1.5" stroke-linecap="round" stroke-linejoin="round" stroke-miterlimit="10" x1="-235.492" y1="429.919" x2="-210.306" y2="421.53"/>
	
		<line fill="none" stroke="#8B8B8B" stroke-width="1.5" stroke-linecap="round" stroke-linejoin="round" stroke-miterlimit="10" x1="-226.092" y1="455.978" x2="-206.507" y2="430.207"/>
	
		<line fill="none" stroke="#8B8B8B" stroke-width="1.5" stroke-linecap="round" stroke-linejoin="round" stroke-miterlimit="10" x1="-186.007" y1="413.321" x2="-162.167" y2="401.222"/>
	
		<line fill="none" stroke="#8B8B8B" stroke-width="1.5" stroke-linecap="round" stroke-linejoin="round" stroke-miterlimit="10" x1="-183.642" y1="420.899" x2="-158.453" y2="422.499"/>
	
		<line fill="none" stroke="#8B8B8B" stroke-width="1.5" stroke-linecap="round" stroke-linejoin="round" stroke-miterlimit="10" x1="-187.431" y1="430.207" x2="-163.81" y2="452.327"/>
	
		<line fill="none" stroke="#8B8B8B" stroke-width="1.5" stroke-linecap="round" stroke-linejoin="round" stroke-miterlimit="10" x1="-198.641" y1="382.569" x2="-196.974" y2="407.567"/>
</g>
<g>
	<circle fill="#FFFFFF" cx="-156.977" cy="399.234" r="7.087"/>
	<path fill="#8B8B8B" d="M-156.977,393.647c3.08,0,5.587,2.506,5.587,5.587s-2.506,5.587-5.587,5.587
		c-3.08,0-5.587-2.506-5.587-5.587S-160.057,393.647-156.977,393.647 M-156.977,392.147c-3.915,0-7.087,3.172-7.087,7.087
		c0,3.915,3.172,7.087,7.087,7.087c3.915,0,7.087-3.172,7.087-7.087C-149.89,395.319-153.062,392.147-156.977,392.147
		L-156.977,392.147z"/>
</g>
<g>
	<circle fill="#FFFFFF" cx="-233.638" cy="390.901" r="7.087"/>
	<path fill="#8B8B8B" d="M-233.638,385.314c3.08,0,5.587,2.506,5.587,5.587s-2.506,5.587-5.587,5.587
		c-3.08,0-5.587-2.506-5.587-5.587S-236.718,385.314-233.638,385.314 M-233.638,383.814c-3.915,0-7.087,3.172-7.087,7.087
		c0,3.915,3.172,7.087,7.087,7.087s7.087-3.172,7.087-7.087C-226.551,386.986-229.723,383.814-233.638,383.814L-233.638,383.814z"/>
</g>
<g>
	<circle fill="#FFFFFF" cx="-226.972" cy="460.896" r="7.087"/>
	<path fill="#8B8B8B" d="M-226.972,455.309c3.08,0,5.587,2.506,5.587,5.587s-2.506,5.587-5.587,5.587
		c-3.08,0-5.587-2.506-5.587-5.587S-230.052,455.309-226.972,455.309 M-226.972,453.809c-3.915,0-7.087,3.172-7.087,7.087
		s3.172,7.087,7.087,7.087c3.913,0,7.087-3.172,7.087-7.087S-223.057,453.809-226.972,453.809L-226.972,453.809z"/>
</g>
<g>
	<circle fill="#FFFFFF" cx="-160.311" cy="455.896" r="7.087"/>
	<path fill="#8B8B8B" d="M-160.311,450.309c3.08,0,5.587,2.506,5.587,5.587s-2.506,5.587-5.587,5.587
		c-3.08,0-5.587-2.506-5.587-5.587S-163.391,450.309-160.311,450.309 M-160.311,448.809c-3.915,0-7.087,3.172-7.087,7.087
		s3.172,7.087,7.087,7.087c3.915,0,7.087-3.172,7.087-7.087C-153.224,451.983-156.396,448.809-160.311,448.809L-160.311,448.809z"/>
</g>
<g>
	<g>
		<polygon points="-233.745,386.597 -233.745,389.692 -233.801,389.717 -236.272,390.742 		"/>
	</g>
	<g>
		<polygon points="-236.243,391.04 -233.745,390.004 -233.745,392.479 		"/>
	</g>
	<g>
		<polygon points="-233.746,393.078 -236.4,391.547 -233.746,395.206 		"/>
	</g>
	<g>
		<polygon points="-233.531,386.597 -233.531,389.692 -233.475,389.717 -231.004,390.742 		"/>
	</g>
	<g>
		<polygon points="-231.033,391.04 -233.531,390.004 -233.531,392.479 		"/>
	</g>
	<g>
		<polygon points="-233.53,393.078 -230.876,391.547 -233.53,395.206 		"/>
	</g>
</g>
<g>
	<g>
		<circle fill="#FFFFFF" cx="-198.641" cy="377.977" r="7.087"/>
		<path fill="#8B8B8B" d="M-198.641,372.39c3.08,0,5.587,2.506,5.587,5.587c0,3.08-2.506,5.587-5.587,5.587
			c-3.08,0-5.587-2.506-5.587-5.587C-204.227,374.896-201.721,372.39-198.641,372.39 M-198.641,370.89
			c-3.913,0-7.087,3.173-7.087,7.087c0,3.915,3.172,7.087,7.087,7.087c3.915,0,7.087-3.172,7.087-7.087
			C-191.554,374.062-194.726,370.89-198.641,370.89L-198.641,370.89z"/>
	</g>
	<g>
		<path d="M-197.365,378.543c-0.122,0-0.241,0.015-0.356,0.041c-0.605-0.574-0.226-1.004,0.081-1.221
			c0.122,0.03,0.248,0.047,0.379,0.047c0.882,0,1.597-0.715,1.597-1.597s-0.715-1.598-1.597-1.598s-1.598,0.715-1.598,1.598
			c0,0.385,0.136,0.738,0.363,1.013c-0.027,0.915-0.654,0.802-1.044,0.642c-0.179-0.686-0.802-1.193-1.544-1.193
			c-0.882,0-1.597,0.715-1.597,1.598c0,0.882,0.715,1.598,1.597,1.598c0.619,0,1.155-0.353,1.42-0.869
			c0.776-0.28,0.987,0.203,1.041,0.554c-0.213,0.272-0.342,0.613-0.342,0.985c0,0.882,0.715,1.598,1.597,1.598
			s1.598-0.715,1.598-1.598S-196.483,378.543-197.365,378.543z"/>
	</g>
</g>
<g>
	<g>
		<path d="M-155.17,401.354h1.556c-0.703,1.115-1.946,1.856-3.363,1.856s-2.66-0.741-3.364-1.856h1.557v-2.12l1.807,1.778
			l1.807-1.778V401.354z"/>
	</g>
	<g>
		<path d="M-153.001,399.235c0,0.412-0.063,0.808-0.179,1.182h-1.069v-3.412l-2.728,2.678l-2.728-2.679v3.412h-1.071
			c-0.115-0.373-0.177-0.77-0.177-1.181c0-2.196,1.781-3.977,3.977-3.977C-154.781,395.258-153.001,397.039-153.001,399.235z"/>
	</g>
</g>
<g>
	<g>
		<circle fill="#FFFFFF" cx="-239.913" cy="432.565" r="7.087"/>
		<path fill="#8B8B8B" d="M-239.913,426.978c3.08,0,5.587,2.506,5.587,5.587s-2.506,5.587-5.587,5.587
			c-3.08,0-5.587-2.506-5.587-5.587S-242.994,426.978-239.913,426.978 M-239.913,425.478c-3.915,0-7.087,3.172-7.087,7.087
			s3.172,7.087,7.087,7.087c3.913,0,7.087-3.172,7.087-7.087S-235.999,425.478-239.913,425.478L-239.913,425.478z"/>
	</g>
	<g>
		<polygon points="-237.737,434.144 -237.737,435.651 -239.404,435.651 -239.404,436.735 -240.575,436.735 -240.575,435.651 
			-242.226,435.651 -242.226,434.544 -240.699,432.298 -239.856,431.056 -242.04,431.056 -242.04,429.54 -240.575,429.54 
			-240.575,428.395 -239.404,428.395 -239.404,429.54 -237.825,429.54 -237.825,430.737 -239.528,433.177 -240.203,434.144 		"/>
	</g>
</g>
<g>
	<g>
		<circle fill="#FFFFFF" cx="-154.087" cy="424.232" r="7.087"/>
		<path fill="#8B8B8B" d="M-154.087,418.645c3.08,0,5.587,2.506,5.587,5.587s-2.506,5.587-5.587,5.587
			c-3.08,0-5.587-2.506-5.587-5.587S-157.167,418.645-154.087,418.645 M-154.087,417.145c-3.915,0-7.087,3.172-7.087,7.087
			s3.172,7.087,7.087,7.087c3.913,0,7.087-3.173,7.087-7.087C-147,420.317-150.172,417.145-154.087,417.145L-154.087,417.145z"/>
	</g>
	<g>
		<polygon points="-154.355,426.088 -153.918,424.486 -152.812,424.094 -152.541,422.974 -153.611,423.359 -152.869,420.635 
			-154.898,420.635 -155.83,424.155 -156.785,424.498 -157.047,425.593 -156.125,425.267 -156.692,427.411 -151.221,427.411 
			-150.822,426.088 		"/>
	</g>
</g>
<g>
	<g>
		<path d="M-222.962,459.424l-0.712,2.469c-0.233,0.811-0.976,1.372-1.823,1.372h-5.277l0.396-1.247h4.881l0.75-2.344h-4.883
			l0.396-1.247h5.523C-223.193,458.428-222.819,458.925-222.962,459.424z"/>
	</g>
	<g>
		<polygon points="-231.013,461.378 -230.683,460.279 -227.696,460.279 -227.989,461.378 		"/>
	</g>
</g>
<g>
	<g>
		<polygon points="-163.81,453.55 -160.712,454.999 -160.712,459.747 -163.81,458.411 		"/>
	</g>
	<g>
		<polygon points="-163.611,453.325 -160.456,454.831 -157.018,453.524 -160.002,452.046 		"/>
	</g>
	<g>
		<polygon points="-160.03,454.942 -160.03,457.047 -156.876,458.525 -156.876,453.777 		"/>
	</g>
</g>
<g>
	<g>
		<circle fill="#FFFFFF" cx="-196.974" cy="463.803" r="7.087"/>
		<path fill="#8B8B8B" d="M-196.974,458.217c3.08,0,5.587,2.506,5.587,5.587s-2.506,5.587-5.587,5.587
			c-3.08,0-5.587-2.506-5.587-5.587S-200.054,458.217-196.974,458.217 M-196.974,456.717c-3.915,0-7.087,3.172-7.087,7.087
			s3.172,7.087,7.087,7.087c3.913,0,7.087-3.172,7.087-7.087S-193.059,456.717-196.974,456.717L-196.974,456.717z"/>
	</g>
	<g>
		<path d="M-193.969,466.324L-193.969,466.324v-0.008l-0.931-4.247c0-0.015-0.008-0.023-0.015-0.038c0,0,0-0.008-0.008-0.008
			c0-0.008-0.008-0.015-0.008-0.015l-1.923-2.635c-0.03-0.038-0.076-0.061-0.121-0.061s-0.091,0.023-0.121,0.061l-1.923,2.627
			c-0.015,0.015-0.023,0.038-0.03,0.061l-0.931,4.255c0,0.015-0.008,0.03,0,0.045c0,0.023,0.008,0.038,0.023,0.061
			s0.03,0.038,0.053,0.053l2.847,1.794c0.023,0.015,0.053,0.023,0.083,0.023l0,0c0.03,0,0.053-0.008,0.083-0.023l2.854-1.787
			c0.023-0.015,0.045-0.038,0.053-0.061c0.008-0.008,0.008-0.015,0.008-0.03l0,0l0,0
			C-193.962,466.37-193.962,466.347-193.969,466.324z M-194.477,465.408l-0.939-1.658l0.341-1.067L-194.477,465.408z
			 M-196.824,459.927l1.605,2.196l-0.401,1.272l-1.204-2.127V459.927z M-196.975,461.615l1.226,2.173l-0.765,2.415h-0.924
			l-0.765-2.415L-196.975,461.615z M-197.126,459.927v1.34l-1.204,2.12l-0.401-1.272L-197.126,459.927z M-198.875,462.683
			l0.341,1.067l-0.939,1.658L-198.875,462.683z M-198.406,464.144l0.651,2.059h-1.817L-198.406,464.144z M-199.307,466.506h1.65
			l0.409,1.287L-199.307,466.506z M-196.975,467.649l-0.363-1.143h0.727L-196.975,467.649z M-196.702,467.793l0.409-1.287h1.65
			L-196.702,467.793z M-196.195,466.203l0.651-2.059l1.166,2.059H-196.195z"/>
	</g>
</g>
<line fill="none" stroke="#8B8B8B" stroke-linecap="round" stroke-linejoin="round" stroke-miterlimit="10" x1="-196.974" y1="457.142" x2="-196.974" y2="434.231"/>
<polygon fill="none" stroke="#8B8B8B" stroke-linecap="round" stroke-linejoin="round" stroke-miterlimit="10" points="
	-162.823,401.222 -228.659,395.206 -225.22,454.831 -165.262,450.967 "/>
<polygon fill="none" stroke="#8B8B8B" stroke-linecap="round" stroke-linejoin="round" stroke-miterlimit="10" points="
	-198.641,384.28 -234.598,429.441 -196.974,457.53 -160.03,422.399 "/>
</svg>
