<?xml version="1.0" encoding="utf-8"?>
<!-- Generator: Adobe Illustrator 19.0.0, SVG Export Plug-In . SVG Version: 6.00 Build 0)  -->
<svg version="1.1" id="Layer_1" xmlns="http://www.w3.org/2000/svg" xmlns:xlink="http://www.w3.org/1999/xlink" x="0px" y="0px"
	 width="100px" height="100px" viewBox="165 370.89 100 100" enable-background="new 165 370.89 100 100" xml:space="preserve">
<path d="M262.414,469.803h-94.828c-0.829,0-1.5-0.672-1.5-1.5v-94.827c0-0.829,0.671-1.5,1.5-1.5h94.828c0.828,0,1.5,0.671,1.5,1.5
	v94.827C263.914,469.132,263.242,469.803,262.414,469.803z M169.086,466.803h91.828v-91.827h-91.828V466.803z"/>
<rect x="175.251" y="370.89" width="3.637" height="5.173"/>
<rect x="175.251" y="465.717" width="3.637" height="5.173"/>
<rect x="251.112" y="370.89" width="3.637" height="5.173"/>
<rect x="251.112" y="465.717" width="3.637" height="5.173"/>
<rect x="259.827" y="381.141" width="5.173" height="3.636"/>
<rect x="165" y="381.141" width="5.173" height="3.636"/>
<rect x="259.827" y="457.002" width="5.173" height="3.637"/>
<rect x="165" y="457.002" width="5.173" height="3.637"/>
<g>
	<g>
		<path fill="#B90000" d="M246.121,408.846c-2.058-2.058-5.226-2.339-7.592-0.852l-4.452-4.452l4.236-4.236l-10.398-10.398
			l-4.236,4.236l-4.452-4.452c1.487-2.366,1.207-5.533-0.852-7.592c-2.388-2.388-6.275-2.388-8.665,0.002
			c-2.388,2.388-2.388,6.275,0,8.663c2.058,2.058,5.224,2.339,7.59,0.853l4.453,4.453l-0.249,0.249
			c-7.145-2.974-15.562-1.399-21.14,4.179l-1.157,1.157l1.927,1.927l1.157-1.157c4.52-4.52,11.21-5.985,17.104-3.997l-1.879,1.879
			l10.398,10.398l1.9-1.9c2.068,5.911,0.611,12.497-4.018,17.126l-1.157,1.157l1.927,1.927l1.157-1.157
			c5.705-5.705,7.261-13.966,4.192-21.152l0.236-0.236l4.453,4.453c-1.486,2.365-1.205,5.532,0.853,7.59
			c2.388,2.388,6.274,2.388,8.662-0.001C248.508,415.121,248.509,411.234,246.121,408.846z M211.437,388.037
			c-1.436-1.436-1.436-3.772,0-5.208c1.437-1.437,3.774-1.437,5.21-0.002c1.437,1.437,1.437,3.774,0,5.211
			C215.211,389.475,212.874,389.474,211.437,388.037z M227.914,406.25l-6.943-6.943l6.943-6.943l6.943,6.943L227.914,406.25z
			 M239.184,415.784c-1.437-1.437-1.437-3.774-0.002-5.21c1.437-1.437,3.775-1.437,5.211,0c1.436,1.436,1.434,3.772-0.003,5.209
			C242.955,417.219,240.619,417.219,239.184,415.784z"/>
		<path fill="#B90000" d="M220.146,408.045l-9.484,9.484c1.064,1.808,0.625,4.259-1.359,5.514c-1.262,0.798-2.931,0.806-4.203,0.025
			c-2.339-1.437-2.604-4.543-0.79-6.357c1.335-1.335,3.366-1.531,4.919-0.617l9.483-9.483l-21.99,3.383
			c-0.299,0.046-0.554,0.247-0.668,0.526l-6.765,15.347c-0.187,0.423-0.094,0.917,0.233,1.243l10.125,10.125
			c0.327,0.327,0.821,0.419,1.243,0.233l15.346-6.765c0.281-0.116,0.481-0.37,0.527-0.67L220.146,408.045z"/>
	</g>
	<path fill="#8B8B8B" d="M208.826,457.492l-3.807-3.807l-0.841,0.843l-0.812-0.81l0.842-0.843l-0.955-0.955l-1.551,1.548
		l-0.81-0.811l1.549-1.548l-0.956-0.956l-0.843,0.842l-0.81-0.812l0.842-0.841l-0.956-0.956l-1.55,1.55l-0.811-0.811l1.55-1.55
		l-0.955-0.955l-0.843,0.843l-0.81-0.811l0.843-0.843l-0.956-0.956l-1.549,1.55l-0.811-0.81l1.55-1.551l-0.955-0.955l-0.843,0.843
		l-0.811-0.811l0.844-0.843l-0.955-0.955l-1.551,1.55l-0.81-0.81l1.551-1.549l-0.956-0.956l-0.842,0.842l-0.811-0.81l0.842-0.843
		l-0.956-0.956l-1.549,1.551l-0.811-0.81l1.55-1.551l-0.955-0.955l-0.843,0.843l-0.81-0.811l0.842-0.842l-0.955-0.955l-1.549,1.549
		l-0.811-0.811l1.55-1.549l-0.955-0.955l-0.843,0.843l-0.811-0.811l0.844-0.843l-3.163-3.163c-0.164-0.164-0.41-0.214-0.625-0.124
		c-0.216,0.088-0.353,0.297-0.353,0.529v28.973c0,0.317,0.257,0.574,0.572,0.574h28.975c0.231,0,0.44-0.14,0.528-0.354
		C209.039,457.902,208.991,457.655,208.826,457.492z M185.442,451.903v-8.507l8.506,8.507H185.442z"/>
	<g id="paint-brush_1_">
		<path fill="#8B8B8B" d="M234.949,447.139c-0.508,0.557-1.365,0.59-1.914,0.074l-2.349-2.208c-0.549-0.514-0.582-1.385-0.074-1.942
			l0,0c0.508-0.559,1.365-0.591,1.915-0.076l2.349,2.209C235.424,445.711,235.457,446.581,234.949,447.139L234.949,447.139z"/>
		<path fill="#8B8B8B" d="M252.305,428.788c1.157-1.267,1.081-3.264-0.167-4.435l-0.226-0.214c-1.249-1.173-3.214-1.095-4.371,0.172
			l-14.457,14.004c-1.156,1.267-1.08,3.264,0.169,4.436l2.042,1.921c1.247,1.171,3.213,1.096,4.369-0.172L252.305,428.788z"/>
		<path fill="#8B8B8B" d="M232.844,448.137l-3.135-2.947c-5.084-2.107-7.544,2.493-8.003,6.459
			c-0.453,3.968-3.694,3.787-3.694,3.787C235.664,461.345,232.844,448.137,232.844,448.137z M223.126,449.994
			c1.139-5.895,5.637-4.202,5.637-4.202l1.724,1.388C225.889,445.526,223.126,449.994,223.126,449.994z"/>
	</g>
</g>
</svg>
