<?xml version="1.0" encoding="utf-8"?>
<!-- Generator: Adobe Illustrator 19.0.0, SVG Export Plug-In . SVG Version: 6.00 Build 0)  -->
<svg version="1.1" id="Layer_1" xmlns="http://www.w3.org/2000/svg" xmlns:xlink="http://www.w3.org/1999/xlink" x="0px" y="0px"
	 width="100px" height="100px" viewBox="165 370.89 100 100" enable-background="new 165 370.89 100 100" xml:space="preserve">
<g>
	<g>
		<path fill="#B90000" d="M196.913,409.529h2.073c0.534,0,0.967-0.433,0.967-0.966v-5.985c0-0.534-0.433-0.966-0.967-0.966h-2.073
			c-0.534,0-0.967,0.433-0.967,0.966v5.985C195.946,409.096,196.379,409.529,196.913,409.529z"/>
		<path fill="#B90000" d="M196.913,429.534h2.073c0.534,0,0.967-0.433,0.967-0.966v-9.945c0-0.534-0.433-0.966-0.967-0.966h-2.073
			c-0.534,0-0.967,0.433-0.967,0.966v9.945C195.946,429.102,196.379,429.534,196.913,429.534z"/>
		<path fill="#B90000" d="M203.061,405.593h9.782c0.534,0,0.967-0.433,0.967-0.967v-2.073c0-0.534-0.433-0.966-0.967-0.966h-9.782
			c-0.534,0-0.967,0.433-0.967,0.966v2.073C202.095,405.16,202.527,405.593,203.061,405.593z"/>
		<path fill="#B90000" d="M202.095,422.559v2.073c0,0.534,0.433,0.967,0.967,0.967h9.782c0.534,0,0.967-0.433,0.967-0.967v-2.073
			c0-0.534-0.433-0.967-0.967-0.967h-9.782C202.527,421.593,202.095,422.026,202.095,422.559z"/>
		<path fill="#B90000" d="M228.983,421.593h-5.916c-0.534,0-0.967,0.433-0.967,0.967v2.073c0,0.534,0.433,0.967,0.967,0.967h5.916
			c0.534,0,0.967-0.433,0.967-0.967v-2.073C229.95,422.026,229.517,421.593,228.983,421.593z"/>
		<path fill="#B90000" d="M216.942,409.529h2.073c0.534,0,0.967-0.433,0.967-0.966v-5.985c0-0.534-0.433-0.966-0.967-0.966h-2.073
			c-0.534,0-0.967,0.433-0.967,0.966v5.985C215.975,409.096,216.408,409.529,216.942,409.529z"/>
		<path fill="#B90000" d="M208.988,419.473c0.534,0,0.967-0.433,0.967-0.967v-9.875c0-0.534-0.433-0.966-0.967-0.966h-2.073
			c-0.534,0-0.967,0.433-0.967,0.966v9.875c0,0.534,0.433,0.967,0.967,0.967H208.988z"/>
		<path fill="#B90000" d="M216.942,417.692c-0.534,0-0.967,0.433-0.967,0.967v9.875c0,0.534,0.433,0.967,0.967,0.967h2.073
			c0.534,0,0.967-0.433,0.967-0.967v-9.875c0-0.534-0.433-0.967-0.967-0.967H216.942z"/>
		<path fill="#B90000" d="M229.087,407.666h-2.073c-0.534,0-0.967,0.433-0.967,0.966v9.875c0,0.534,0.433,0.967,0.967,0.967h2.073
			c0.534,0,0.967-0.433,0.967-0.967v-9.875C230.054,408.098,229.621,407.666,229.087,407.666z"/>
		<path fill="#B90000" d="M228.983,427.613h-2.073c-0.534,0-0.967,0.433-0.967,0.966v6.049c0,0.534,0.433,0.966,0.967,0.966h2.073
			c0.534,0,0.967-0.433,0.967-0.966v-6.049C229.95,428.046,229.517,427.613,228.983,427.613z"/>
		<path fill="#B90000" d="M208.988,427.613h-2.073c-0.534,0-0.967,0.433-0.967,0.966v6.049c0,0.534,0.433,0.966,0.967,0.966h2.073
			c0.534,0,0.967-0.433,0.967-0.966v-6.049C209.955,428.046,209.522,427.613,208.988,427.613z"/>
		<path fill="#B90000" d="M223.068,405.593h5.916c0.534,0,0.967-0.433,0.967-0.967v-2.073c0-0.534-0.433-0.966-0.967-0.966h-5.916
			c-0.534,0-0.967,0.433-0.967,0.966v2.073C222.101,405.16,222.534,405.593,223.068,405.593z"/>
		<path fill="#B90000" d="M202.829,431.59h-5.916c-0.534,0-0.967,0.433-0.967,0.967v2.073c0,0.534,0.433,0.966,0.967,0.966h5.916
			c0.534,0,0.967-0.433,0.967-0.966v-2.073C203.795,432.023,203.362,431.59,202.829,431.59z"/>
		<path fill="#B90000" d="M196.913,415.573h5.916c0.534,0,0.967-0.433,0.967-0.966v-2.073c0-0.534-0.433-0.966-0.967-0.966h-5.916
			c-0.534,0-0.967,0.433-0.967,0.966v2.073C195.946,415.14,196.379,415.573,196.913,415.573z"/>
		<path fill="#B90000" d="M223.905,414.606v-2.073c0-0.534-0.433-0.966-0.967-0.966h-9.921c-0.534,0-0.967,0.433-0.967,0.966v2.073
			c0,0.534,0.433,0.966,0.967,0.966h9.921C223.473,415.573,223.905,415.14,223.905,414.606z"/>
		<path fill="#B90000" d="M222.939,431.59h-9.921c-0.534,0-0.967,0.433-0.967,0.967v2.073c0,0.534,0.433,0.966,0.967,0.966h9.921
			c0.534,0,0.967-0.433,0.967-0.966v-2.073C223.905,432.023,223.473,431.59,222.939,431.59z"/>
	</g>
	<path d="M193.491,463.995c-0.153,0-0.295-0.072-0.384-0.196l-28.021-39.682c-0.095-0.138-0.113-0.316-0.043-0.47l20.295-44.147
		c0.07-0.153,0.217-0.258,0.384-0.272l48.314-4.469c0.167-0.027,0.33,0.06,0.427,0.196l28.019,39.68
		c0.097,0.14,0.116,0.318,0.045,0.468l-20.297,44.153c-0.068,0.153-0.215,0.256-0.38,0.27l-48.318,4.469H193.491z M167.529,423.654
		l26.826,37.99l46.257-4.279l19.427-42.268l-26.824-37.988l-46.257,4.275L167.529,423.654z M241.805,459.058h0.012H241.805z"/>
	<path fill="#8B8B8B" d="M193.323,463.896l-7.757-40.377l-0.037-44.138l37.782,11.122l39.179,24.372l-29.096,25.863L193.323,463.896
		z M185.999,380.008l0.033,43.47l7.627,39.68l39.461-22.795l28.589-25.422l-38.619-24.025L185.999,380.008z"/>
	<path d="M225.339,390.946c0,0.778-0.631,1.409-1.407,1.409c-0.776,0-1.407-0.631-1.407-1.409c0-0.778,0.631-1.409,1.407-1.409
		C224.708,389.537,225.339,390.168,225.339,390.946"/>
	<path d="M234.732,440.48c0,0.778-0.629,1.409-1.407,1.409c-0.776,0-1.407-0.631-1.407-1.409c0-0.778,0.631-1.409,1.407-1.409
		C234.103,439.071,234.732,439.702,234.732,440.48"/>
	<path d="M195.241,463.528c0,0.778-0.629,1.409-1.407,1.409c-0.776,0-1.407-0.631-1.407-1.409c0-0.778,0.631-1.409,1.407-1.409
		C194.612,462.119,195.241,462.75,195.241,463.528"/>
	<path d="M187.17,423.945c0,0.778-0.629,1.409-1.407,1.409c-0.776,0-1.407-0.631-1.407-1.409c0-0.778,0.631-1.409,1.407-1.409
		C186.541,422.536,187.17,423.168,187.17,423.945"/>
	<path d="M263.506,414.978c0,0.778-0.629,1.409-1.407,1.409c-0.776,0-1.407-0.631-1.407-1.409c0-0.778,0.631-1.409,1.407-1.409
		C262.877,413.569,263.506,414.2,263.506,414.978"/>
	<path d="M187.17,379.695c0,0.778-0.629,1.409-1.407,1.409c-0.776,0-1.407-0.631-1.407-1.409c0-0.778,0.631-1.409,1.407-1.409
		C186.541,378.286,187.17,378.917,187.17,379.695"/>
	<path d="M241.806,459.526c-0.054,0-0.107-0.008-0.157-0.025l-36.839-13.004l-39.573-22.245c-0.13-0.074-0.217-0.204-0.235-0.353
		c-0.017-0.151,0.037-0.299,0.149-0.404l29.773-27.28l38.929-21.403c0.13-0.07,0.283-0.076,0.419-0.014
		c0.134,0.06,0.231,0.179,0.264,0.322l8.723,38.345l-0.986,45.605c-0.002,0.148-0.078,0.289-0.2,0.373
		C241.992,459.5,241.899,459.526,241.806,459.526 M166.264,423.754l38.933,21.894l36.154,12.752l0.98-44.844l-8.57-37.619
		l-38.293,21.04L166.264,423.754z"/>
	<rect x="180.829" y="387.657" transform="matrix(0.4899 0.8718 -0.8718 0.4899 435.5544 31.9196)" width="19.348" height="0.942"/>
	<rect x="198.93" y="444.432" transform="matrix(0.8424 0.5389 -0.5389 0.8424 276.492 -35.7716)" width="0.938" height="20.717"/>
	<rect x="242.774" y="413.805" transform="matrix(0.9973 0.0728 -0.0728 0.9973 30.8382 -17.2838)" width="19.35" height="0.937"/>
	<path fill="#8B8B8B" d="M223.932,394.445c-1.93,0-3.501-1.569-3.501-3.499c0-1.927,1.571-3.501,3.501-3.501
		c1.93,0,3.499,1.574,3.499,3.501C227.431,392.876,225.862,394.445,223.932,394.445 M223.932,390.844l-0.105,0.102
		c0,0.057,0.045,0.102,0.105,0.102V390.844z"/>
	<path fill="#8B8B8B" d="M233.325,443.979c-1.93,0-3.501-1.569-3.501-3.499c0-1.927,1.571-3.501,3.501-3.501
		c1.93,0,3.499,1.574,3.499,3.501C236.824,442.41,235.255,443.979,233.325,443.979 M233.325,440.378l-0.105,0.102
		c0,0.057,0.045,0.102,0.105,0.102V440.378z"/>
	<path fill="#8B8B8B" d="M193.834,467.026c-1.93,0-3.499-1.567-3.499-3.5c0-1.93,1.569-3.5,3.499-3.5s3.501,1.57,3.501,3.5
		C197.335,465.459,195.764,467.026,193.834,467.026 M193.834,463.426l-0.105,0.1c0,0.055,0.047,0.099,0.105,0.099V463.426z"/>
	<path fill="#8B8B8B" d="M185.763,427.445c-1.93,0-3.499-1.57-3.499-3.5c0-1.928,1.569-3.5,3.499-3.5s3.501,1.572,3.501,3.5
		C189.265,425.875,187.693,427.445,185.763,427.445 M185.763,423.843l-0.105,0.102c0,0.057,0.047,0.102,0.105,0.102V423.843z"/>
	<path fill="#8B8B8B" d="M261.5,418.477c-1.929,0-3.5-1.569-3.5-3.499c0-1.927,1.571-3.501,3.5-3.501s3.5,1.574,3.5,3.501
		C265,416.908,263.429,418.477,261.5,418.477 M259.981,415.019l-0.101,0.099c0,0.055,0.046,0.099,0.101,0.099V415.019z"/>
	<path fill="#8B8B8B" d="M185.763,383.194c-1.93,0-3.499-1.569-3.499-3.499c0-1.927,1.569-3.501,3.499-3.501
		s3.501,1.574,3.501,3.501C189.265,381.625,187.693,383.194,185.763,383.194 M185.763,379.593l-0.105,0.102
		c0,0.057,0.047,0.102,0.105,0.102V379.593z"/>
</g>
</svg>
