<?xml version="1.0" encoding="utf-8"?>
<!-- Generator: Adobe Illustrator 19.0.0, SVG Export Plug-In . SVG Version: 6.00 Build 0)  -->
<svg version="1.1" id="Layer_1" xmlns="http://www.w3.org/2000/svg" xmlns:xlink="http://www.w3.org/1999/xlink" x="0px" y="0px"
	 width="100px" height="100px" viewBox="165 370.89 100 100" enable-background="new 165 370.89 100 100" xml:space="preserve">
<g>
	<g>
		<path fill="#8B8B8B" d="M244.366,414.953l-9.899-13.198c-0.546-0.731-1.58-0.874-2.31-0.33c-0.729,0.546-0.876,1.58-0.33,2.308
			l9.899,13.198c0.325,0.432,0.82,0.66,1.321,0.66c0.343,0,0.691-0.107,0.988-0.33C244.765,416.714,244.912,415.68,244.366,414.953z
			"/>
	</g>
</g>
<g>
	<g>
		<path fill="#8B8B8B" d="M257.894,391.194c-3.639,0-6.599,2.96-6.599,6.599c0,3.639,2.96,6.599,6.599,6.599
			c3.639,0,6.599-2.96,6.599-6.599C264.493,394.154,261.533,391.194,257.894,391.194z M257.894,401.093c-1.82,0-3.3-1.48-3.3-3.3
			c0-1.82,1.48-3.3,3.3-3.3s3.3,1.48,3.3,3.3C261.194,399.613,259.714,401.093,257.894,401.093z"/>
	</g>
</g>
<g>
	<g>
		<path fill="#8B8B8B" d="M172.106,445.637c-3.639,0-6.599,2.96-6.599,6.599s2.96,6.599,6.599,6.599c3.639,0,6.599-2.96,6.599-6.599
			S175.745,445.637,172.106,445.637z M172.106,455.535c-1.82,0-3.3-1.48-3.3-3.3c0-1.82,1.48-3.3,3.3-3.3c1.82,0,3.3,1.48,3.3,3.3
			C175.406,454.055,173.926,455.535,172.106,455.535z"/>
	</g>
</g>
<g>
	<g>
		<path fill="#8B8B8B" d="M254.695,393.279l-14.233-6.871c-0.822-0.398-1.806-0.051-2.202,0.769
			c-0.396,0.82-0.051,1.807,0.769,2.202l14.233,6.871c0.231,0.112,0.475,0.165,0.716,0.165c0.614,0,1.203-0.343,1.486-0.934
			C255.86,394.662,255.515,393.675,254.695,393.279z"/>
	</g>
</g>
<g>
	<g>
		<path fill="#8B8B8B" d="M239.747,457.185c-3.639,0-6.599,2.96-6.599,6.599c0,3.639,2.96,6.599,6.599,6.599
			c3.639,0,6.599-2.96,6.599-6.599S243.386,457.185,239.747,457.185z M239.747,467.084c-1.82,0-3.3-1.48-3.3-3.3
			c0-1.82,1.48-3.299,3.3-3.299c1.82,0,3.3,1.48,3.3,3.3C243.046,465.604,241.566,467.084,239.747,467.084z"/>
	</g>
</g>
<g>
	<g>
		<path fill="#8B8B8B" d="M236.548,459.27l-14.233-6.871c-0.822-0.398-1.807-0.053-2.202,0.769c-0.396,0.82-0.051,1.806,0.769,2.202
			l14.233,6.871c0.231,0.112,0.475,0.165,0.716,0.165c0.614,0,1.203-0.343,1.487-0.934
			C237.712,460.653,237.368,459.666,236.548,459.27z"/>
	</g>
</g>
<g>
	<g>
		<path fill="#8B8B8B" d="M215,415.941c-3.639,0-6.599,2.96-6.599,6.599c0,3.639,2.96,6.599,6.599,6.599
			c3.639,0,6.599-2.96,6.599-6.599C221.599,418.9,218.639,415.941,215,415.941z M215,425.839c-1.82,0-3.3-1.48-3.3-3.3
			c0-1.82,1.48-3.3,3.3-3.3c1.82,0,3.3,1.48,3.3,3.3C218.3,424.36,216.82,425.839,215,425.839z"/>
	</g>
</g>
<g>
	<g>
		<path fill="#8B8B8B" d="M212.1,418.211l-10.933-8.521c-0.719-0.556-1.755-0.432-2.316,0.287c-0.559,0.719-0.432,1.755,0.287,2.316
			l10.933,8.521c0.302,0.234,0.658,0.348,1.013,0.348c0.492,0,0.977-0.218,1.303-0.635
			C212.946,419.808,212.819,418.772,212.1,418.211z"/>
	</g>
</g>
<g>
	<g>
		<path fill="#8B8B8B" d="M208.007,388.47c-0.592-0.69-1.633-0.772-2.326-0.18l-11.433,9.783c-0.693,0.592-0.774,1.633-0.182,2.326
			c0.327,0.381,0.789,0.577,1.254,0.577c0.38,0,0.761-0.13,1.072-0.398l11.433-9.783
			C208.518,390.204,208.599,389.163,208.007,388.47z"/>
	</g>
</g>
<g>
	<g>
		<path fill="#8B8B8B" d="M230.826,437.894c-0.546-0.729-1.58-0.876-2.31-0.33l-9.216,6.911c-0.729,0.546-0.876,1.58-0.33,2.308
			c0.325,0.432,0.82,0.66,1.321,0.66c0.345,0,0.691-0.109,0.988-0.33l9.216-6.911C231.225,439.656,231.372,438.622,230.826,437.894z
			"/>
	</g>
</g>
<g>
	<g>
		<path fill="#8B8B8B" d="M188.604,450.586h-11.549c-0.911,0-1.65,0.737-1.65,1.65s0.739,1.65,1.65,1.65h11.548
			c0.911,0,1.65-0.737,1.65-1.65S189.514,450.586,188.604,450.586z"/>
	</g>
</g>
<g>
	<g>
		<path fill="#8B8B8B" d="M183.654,371.397c-3.639,0-6.599,2.96-6.599,6.599c0,3.639,2.96,6.599,6.599,6.599
			c3.639,0,6.599-2.96,6.599-6.599C190.253,374.357,187.294,371.397,183.654,371.397z M183.654,381.296c-1.82,0-3.3-1.48-3.3-3.3
			c0-1.82,1.48-3.3,3.3-3.3c1.82,0,3.3,1.48,3.3,3.3C186.954,379.816,185.474,381.296,183.654,381.296z"/>
	</g>
</g>
<g>
	<g>
		<path fill="#8B8B8B" d="M183.654,381.296c-0.911,0-1.65,0.737-1.65,1.65v11.548c0,0.912,0.739,1.65,1.65,1.65
			s1.65-0.737,1.65-1.65v-11.548C185.304,382.033,184.565,381.296,183.654,381.296z"/>
	</g>
</g>
<g>
	<g>
		<path d="M244.696,414.291c-10.006,0-18.148,8.142-18.148,18.148s8.142,18.148,18.148,18.148s18.148-8.142,18.148-18.148
			S254.702,414.291,244.696,414.291z M244.696,447.286c-8.188,0-14.848-6.66-14.848-14.848c0-8.188,6.66-14.848,14.848-14.848
			s14.848,6.66,14.848,14.848C259.544,440.626,252.884,447.286,244.696,447.286z"/>
	</g>
</g>
<g>
	<g>
		<path d="M205.101,434.088c-10.006,0-18.148,8.142-18.148,18.148s8.142,18.147,18.148,18.147s18.148-8.142,18.148-18.148
			S215.107,434.088,205.101,434.088z M205.101,467.084c-8.188,0-14.848-6.66-14.848-14.848s6.66-14.848,14.848-14.848
			s14.848,6.66,14.848,14.848C219.949,460.423,213.289,467.084,205.101,467.084z"/>
	</g>
</g>
<g>
	<g>
		<path d="M183.654,392.844c-10.006,0-18.148,8.142-18.148,18.148s8.142,18.148,18.148,18.148s18.148-8.142,18.148-18.148
			C201.802,400.985,193.66,392.844,183.654,392.844z M183.654,425.839c-8.188,0-14.848-6.66-14.848-14.848
			s6.66-14.848,14.848-14.848s14.848,6.66,14.848,14.848C198.502,419.179,191.842,425.839,183.654,425.839z"/>
	</g>
</g>
<g>
	<g>
		<path d="M223.249,371.397c-10.006,0-18.148,8.142-18.148,18.148s8.142,18.148,18.148,18.148s18.148-8.142,18.148-18.148
			C241.396,379.539,233.255,371.397,223.249,371.397z M223.249,404.392c-8.188,0-14.848-6.66-14.848-14.848
			s6.66-14.848,14.848-14.848s14.848,6.66,14.848,14.848C238.097,397.732,231.437,404.392,223.249,404.392z"/>
	</g>
</g>
<g>
	<path fill="#B90000" d="M190.402,407.128c0,0.401-0.301,0.768-0.904,1.099c-0.602,0.332-1.42,0.598-2.455,0.798
		s-2.164,0.301-3.389,0.301s-2.354-0.101-3.389-0.301s-1.853-0.467-2.455-0.798c-0.603-0.331-0.904-0.698-0.904-1.099v-1.386
		c0-0.401,0.301-0.768,0.904-1.099c0.602-0.332,1.42-0.598,2.455-0.798s2.164-0.301,3.389-0.301s2.354,0.101,3.389,0.301
		s1.853,0.467,2.455,0.798c0.603,0.331,0.904,0.698,0.904,1.099V407.128z M190.402,411.948c0,0.401-0.301,0.768-0.904,1.099
		c-0.602,0.332-1.42,0.598-2.455,0.798s-2.164,0.301-3.389,0.301s-2.354-0.101-3.389-0.301s-1.853-0.467-2.455-0.798
		c-0.603-0.331-0.904-0.698-0.904-1.099v-3.103c0.703,0.482,1.677,0.854,2.922,1.114c1.165,0.241,2.439,0.362,3.825,0.362
		s2.661-0.121,3.825-0.362c1.245-0.261,2.219-0.632,2.922-1.114V411.948z M190.402,416.767c0,0.401-0.301,0.768-0.904,1.099
		c-0.602,0.332-1.42,0.598-2.455,0.798s-2.164,0.301-3.389,0.301s-2.354-0.101-3.389-0.301s-1.853-0.467-2.455-0.798
		c-0.603-0.331-0.904-0.698-0.904-1.099v-3.103c0.703,0.482,1.677,0.854,2.922,1.114c1.165,0.241,2.439,0.362,3.825,0.362
		s2.661-0.121,3.825-0.362c1.245-0.261,2.219-0.632,2.922-1.114V416.767z"/>
</g>
<g>
	<path fill="#B90000" d="M228.631,391.002c0.643,0.161,1.169,0.502,1.581,1.024c0.411,0.522,0.617,1.114,0.617,1.777v1.114
		c0,0.402-0.141,0.743-0.422,1.024c-0.28,0.281-0.622,0.422-1.023,0.422h-12.53c-0.402,0-0.743-0.141-1.024-0.422
		c-0.281-0.281-0.422-0.622-0.422-1.024v-1.114c0-0.663,0.206-1.255,0.618-1.777c0.411-0.522,0.938-0.863,1.581-1.024l2.139-0.542
		c0.943,0.683,2.008,1.044,3.192,1.084c1.306,0.04,2.49-0.321,3.555-1.084L228.631,391.002z M223.118,380.942
		c-0.863,0-1.666,0.216-2.409,0.647s-1.331,1.019-1.763,1.762s-0.647,1.546-0.647,2.41s0.216,1.667,0.647,2.41
		s1.02,1.331,1.763,1.762s1.546,0.647,2.409,0.647s1.667-0.216,2.41-0.647s1.33-1.019,1.762-1.762s0.647-1.546,0.647-2.41
		s-0.216-1.667-0.647-2.41s-1.019-1.331-1.762-1.762S223.981,380.942,223.118,380.942z"/>
</g>
<g>
	<path fill="#B90000" d="M253.445,428.595h-17.35v-1.445c0-0.402,0.141-0.743,0.422-1.024s0.622-0.422,1.024-0.422H252
		c0.401,0,0.743,0.141,1.023,0.422c0.281,0.281,0.422,0.622,0.422,1.024V428.595z M236.518,438.776
		c0.281,0.281,0.622,0.422,1.024,0.422H252c0.401,0,0.743-0.141,1.023-0.422c0.281-0.28,0.422-0.622,0.422-1.023v-5.302h-17.35
		v5.302C236.096,438.154,236.236,438.496,236.518,438.776z M238.129,435.448c0.07-0.07,0.156-0.105,0.256-0.105h2.169
		c0.101,0,0.186,0.035,0.256,0.105s0.105,0.156,0.105,0.256v1.205c0,0.101-0.035,0.186-0.105,0.256s-0.155,0.105-0.256,0.105h-2.169
		c-0.1,0-0.186-0.035-0.256-0.105s-0.105-0.155-0.105-0.256v-1.205C238.023,435.604,238.059,435.518,238.129,435.448z
		 M241.984,435.448c0.07-0.07,0.156-0.105,0.256-0.105h4.097c0.101,0,0.186,0.035,0.256,0.105s0.105,0.156,0.105,0.256v1.205
		c0,0.101-0.035,0.186-0.105,0.256s-0.155,0.105-0.256,0.105h-4.097c-0.1,0-0.186-0.035-0.256-0.105s-0.105-0.155-0.105-0.256
		v-1.205C241.879,435.604,241.914,435.518,241.984,435.448z"/>
</g>
<g>
	<path fill="#B90000" d="M211.703,453.716c-0.037,0.165-0.114,0.293-0.233,0.385c-0.12,0.092-0.252,0.138-0.399,0.138h-8.061
		l0.165,0.881h7.4c0.202,0,0.367,0.082,0.496,0.247s0.174,0.349,0.137,0.55l-0.165,0.688c0.275,0.128,0.491,0.316,0.646,0.563
		c0.156,0.248,0.234,0.519,0.234,0.812c0,0.422-0.151,0.784-0.454,1.087c-0.303,0.303-0.665,0.454-1.087,0.454
		s-0.784-0.151-1.087-0.454c-0.302-0.303-0.454-0.669-0.454-1.101c0-0.431,0.156-0.793,0.468-1.087h-5.778
		c0.312,0.294,0.468,0.656,0.468,1.087c0,0.432-0.151,0.798-0.454,1.101c-0.303,0.303-0.665,0.454-1.087,0.454
		s-0.784-0.151-1.087-0.454c-0.302-0.303-0.454-0.665-0.454-1.087c0-0.274,0.069-0.531,0.206-0.77
		c0.138-0.239,0.326-0.432,0.564-0.578l-1.926-9.437h-1.926c-0.183,0-0.339-0.064-0.468-0.192c-0.128-0.129-0.192-0.284-0.192-0.468
		v-0.44c0-0.184,0.064-0.339,0.192-0.468c0.128-0.128,0.285-0.192,0.468-0.192h2.834c0.146,0,0.28,0.051,0.399,0.151
		s0.197,0.225,0.234,0.371l0.248,1.238h10.812c0.22,0,0.394,0.083,0.522,0.248s0.165,0.348,0.11,0.55L211.703,453.716z"/>
</g>
</svg>
