<?xml version="1.0" encoding="utf-8"?>
<!-- Generator: Adobe Illustrator 19.0.0, SVG Export Plug-In . SVG Version: 6.00 Build 0)  -->
<svg version="1.1" id="Layer_1" xmlns="http://www.w3.org/2000/svg" xmlns:xlink="http://www.w3.org/1999/xlink" x="0px" y="0px"
	 width="100px" height="100px" viewBox="165 370.89 100 100" enable-background="new 165 370.89 100 100" xml:space="preserve">
<path fill="#8B8B8B" d="M233.05,386.872v38.134c0,6.532-4.696,13.521-13.962,20.777c-2.691,2.115-5.648,4.136-8.829,6.036v-64.947
	H233.05 M236.05,383.872h-28.791v73.074c5.098-2.699,9.653-5.637,13.683-8.805c10.066-7.882,15.108-15.595,15.108-23.135V383.872
	L236.05,383.872z"/>
<path d="M169.104,374.889c0.002,0.001,0.005,0.001,0.01,0.001h74.03l0.012,0.001c0.013,0.011,0.032,0.027,0.055,0.051
	c0.022,0.022,0.038,0.04,0.048,0.052c-0.001,0.002-0.001,0.005-0.001,0.011v50.646c0,3.171-0.63,6.359-1.875,9.484
	c-1.289,3.256-2.906,6.183-4.806,8.702c-1.95,2.585-4.331,5.155-7.074,7.641c-2.786,2.523-5.394,4.648-7.751,6.316
	c-2.348,1.661-4.863,3.272-7.475,4.786c-3.205,1.858-4.767,2.686-5.513,3.053c-1.047,0.515-1.911,0.922-2.568,1.21l-0.067,0.029
	l-0.067-0.029c-0.656-0.288-1.521-0.695-2.568-1.21c-0.746-0.367-2.308-1.194-5.513-3.053c-2.612-1.515-5.127-3.125-7.475-4.786
	c-2.357-1.668-4.965-3.793-7.751-6.316c-2.744-2.485-5.124-5.056-7.079-7.647c-1.888-2.491-3.503-5.417-4.805-8.704
	c-1.242-3.117-1.871-6.305-1.871-9.475l0.002-50.661c0.01-0.012,0.025-0.028,0.044-0.048
	C169.072,374.917,169.091,374.9,169.104,374.889 M243.145,370.89h-74.03c-1.115,0-2.081,0.408-2.896,1.223
	c-0.815,0.815-1.218,1.776-1.218,2.891v50.646c0,3.683,0.712,7.334,2.156,10.956c1.434,3.622,3.205,6.832,5.333,9.639
	c2.118,2.807,4.649,5.539,7.582,8.196c2.933,2.657,5.642,4.859,8.126,6.617c2.484,1.757,5.08,3.416,7.779,4.981
	s4.62,2.624,5.754,3.182c1.134,0.558,2.043,0.984,2.727,1.284c0.515,0.258,1.068,0.384,1.668,0.384c0.609,0,1.162-0.127,1.678-0.384
	c0.684-0.3,1.593-0.726,2.727-1.284c1.134-0.558,3.055-1.617,5.754-3.182c2.699-1.565,5.295-3.224,7.779-4.981
	c2.484-1.757,5.192-3.96,8.126-6.617c2.933-2.657,5.464-5.389,7.582-8.196c2.118-2.807,3.899-6.017,5.333-9.639
	c1.443-3.622,2.156-7.273,2.156-10.956v-50.646c0-1.115-0.403-2.076-1.218-2.891C245.225,371.298,244.26,370.89,243.145,370.89
	L243.145,370.89z"/>
<path fill="#8B8B8B" d="M192.367,448.142c4.03,3.168,8.585,6.106,13.683,8.805v-73.074h-28.791v41.134
	C177.259,432.547,182.301,440.26,192.367,448.142z"/>
<g>
	<circle fill="#FFFFFF" cx="242.313" cy="448.203" r="20.687"/>
	<path d="M242.313,429.516c10.304,0,18.687,8.383,18.687,18.687s-8.383,18.687-18.687,18.687s-18.687-8.383-18.687-18.687
		S232.009,429.516,242.313,429.516 M242.313,425.516c-12.53,0-22.687,10.157-22.687,22.687c0,12.53,10.157,22.687,22.687,22.687
		S265,460.733,265,448.203C265,435.673,254.843,425.516,242.313,425.516L242.313,425.516z"/>
</g>
<path fill="#B90000" d="M254.5,444.723l-16.075,11.741c-0.51,0.373-1.122,0.57-1.746,0.57c-0.161,0-0.322-0.013-0.483-0.04
	c-0.784-0.13-1.483-0.569-1.94-1.219l-4.808-6.846c-0.94-1.338-0.617-3.184,0.721-4.123c1.338-0.94,3.183-0.617,4.123,0.721
	l3.075,4.379l13.64-9.962c1.32-0.964,3.172-0.676,4.136,0.644C256.109,441.907,255.82,443.758,254.5,444.723z"/>
</svg>
