<?xml version="1.0" encoding="utf-8"?>
<!-- Generator: Adobe Illustrator 19.0.0, SVG Export Plug-In . SVG Version: 6.00 Build 0)  -->
<svg version="1.1" id="Layer_1" xmlns="http://www.w3.org/2000/svg" xmlns:xlink="http://www.w3.org/1999/xlink" x="0px" y="0px"
	 width="100px" height="100px" viewBox="165 370.89 100 100" enable-background="new 165 370.89 100 100" xml:space="preserve">
<path fill="#8B8B8B" d="M180.574,401.292h40.713c1.611,0,2.915,1.304,2.915,2.915c0,1.611-1.304,2.915-2.915,2.915h-40.713
	c-1.611,0-2.915-1.304-2.915-2.915C177.659,402.596,178.963,401.292,180.574,401.292z"/>
<path fill="#8B8B8B" d="M180.574,412.951h29.054c1.611,0,2.915,1.304,2.915,2.915c0,1.611-1.304,2.915-2.915,2.915h-29.054
	c-1.611,0-2.915-1.304-2.915-2.915C177.659,414.255,178.963,412.951,180.574,412.951z"/>
<path fill="#8B8B8B" d="M180.574,424.611h29.054c1.611,0,2.915,1.304,2.915,2.915c0,1.611-1.304,2.915-2.915,2.915h-29.054
	c-1.611,0-2.915-1.304-2.915-2.915C177.659,425.914,178.963,424.611,180.574,424.611z"/>
<path fill="#8B8B8B" d="M177.659,439.185c0-1.611,1.304-2.915,2.915-2.915h29.054c1.611,0,2.915,1.304,2.915,2.915
	s-1.304,2.915-2.915,2.915h-29.054C178.963,442.1,177.659,440.796,177.659,439.185z"/>
<path fill="#8B8B8B" d="M221.287,454.589h-17.489c-1.611,0-2.915-1.304-2.915-2.915s1.304-2.915,2.915-2.915h17.489
	c1.611,0,2.915,1.304,2.915,2.915C224.202,453.285,222.899,454.589,221.287,454.589z"/>
<g>
	<path fill="#B90000" d="M240.678,425.456l-6.191-6.191l3.015-3.015l6.191,6.191L240.678,425.456z"/>
	<path fill="#B90000" d="M257.821,398.362l3.753,3.753l3.011-3.01c0.551-0.553,0.554-1.447,0.007-2.004l-1.75-1.773
		c-0.267-0.271-0.632-0.424-1.012-0.424c-0.38,0-0.745,0.153-1.012,0.424L257.821,398.362z"/>
	<path fill="#B90000" d="M217.414,436.361l6.167,6.168c0.154-0.14,0.307-0.284,0.455-0.432l14.631-14.631l-6.191-6.191
		l-14.631,14.631C217.697,436.053,217.554,436.206,217.414,436.361z"/>
	<path fill="#B90000" d="M214.673,441.162l-1.846,5.954l5.953-1.847c0.856-0.266,1.681-0.621,2.462-1.059l-5.51-5.51
		C215.294,439.481,214.939,440.307,214.673,441.162z"/>
	<path fill="#B90000" d="M245.657,424.649c-0.555,0.555-0.555,1.455,0,2.01c0.555,0.555,1.455,0.555,2.01,0l11.375-11.375
		c2.417-2.418,2.771-6.212,0.843-9.036l0.902-0.901l-6.191-6.191l-15.084,15.084l6.191,6.191l12.112-12.112
		c0.84,1.647,0.524,3.648-0.783,4.955L245.657,424.649z"/>
</g>
<g>
	<g>
		<g>
			<path fill="#8B8B8B" d="M240.022,389.296c0-2.251-0.879-4.37-2.471-5.963l-7.95-7.95c-1.57-1.57-3.799-2.471-6.017-2.471h-0.483
				v16.867h16.922L240.022,389.296L240.022,389.296z"/>
		</g>
	</g>
	<path d="M231.589,470.89h-56.133c-5.765,0-10.456-4.69-10.456-10.456v-79.088c0-5.765,4.69-10.456,10.456-10.456h42.169
		c1.117,0,2.022,0.905,2.022,2.022v19.678c0,0.38,0.218,0.789,0.697,0.789h19.753c1.117,0,2.022,0.905,2.022,2.022v11.182
		c0,1.117-0.906,2.022-2.022,2.022s-2.022-0.905-2.022-2.022v-9.16h-17.731c-2.659,0-4.742-2.123-4.742-4.834v-17.656h-40.146
		c-3.535,0-6.411,2.876-6.411,6.411v79.088c0,3.535,2.876,6.412,6.411,6.412h56.133c3.577,0,6.486-2.876,6.486-6.412v-26.62
		c0-1.117,0.906-2.022,2.022-2.022s2.022,0.906,2.022,2.022v26.62C242.119,466.2,237.395,470.89,231.589,470.89z"/>
</g>
<path fill="#8B8B8B" d="M260.136,457.753h-9.11c-1.1,0-2-0.9-2-2v-1.619c0-1.1,0.9-2,2-2h9.11c1.1,0,2,0.9,2,2v1.619
	C262.136,456.853,261.236,457.753,260.136,457.753z"/>
<path fill="#B90000" d="M263.237,458.848h-15.975c-0.969,0-1.763,0.793-1.763,1.763v8.263c0,0.969,0.793,1.763,1.763,1.763h15.975
	c0.969,0,1.763-0.793,1.763-1.763v-8.263C265,459.642,264.207,458.848,263.237,458.848z M261.805,466.383
	c0,0.398-0.326,0.724-0.724,0.724h-11.663c-0.398,0-0.724-0.326-0.724-0.724v-3.281c0-0.398,0.326-0.724,0.724-0.724h11.663
	c0.398,0,0.724,0.326,0.724,0.724V466.383z"/>
</svg>
